<svg id="TlrpZ2" xmlns="http://www.w3.org/2000/svg" width="243.996" height="119.294" viewBox="0 0 243.996 119.294">
  <g id="Group_1717" data-name="Group 1717">
    <path id="Path_1154" data-name="Path 1154" d="M928.533,5402.16c.526,1.236,1.088,2.458,1.572,3.711,7.951,20.636,15.94,41.259,23.771,61.941.928,2.453,2.072,3.31,4.718,3.491a482.133,482.133,0,0,1,85.278,13.321c.785.2,1.536.528,2.74.95a64.675,64.675,0,0,1-6.024,6.082c-.857.676-2.63.537-3.9.295-11.38-2.174-22.658-5.093-34.126-6.553-17.073-2.175-34.259-3.541-51.43-4.811-4.954-.367-7.368-1.864-8.911-6.851-4.147-13.4-9.048-26.569-13.912-40.586-.686,1.708-1.174,2.783-1.555,3.894-4.539,13.287-9.115,26.561-13.538,39.886-.785,2.365-1.916,3.2-4.453,3.371-29.93,1.986-59.854,4.1-89.033,11.772a4.573,4.573,0,0,1-4.977-1.432,48.5,48.5,0,0,0-5.22-4.125l.749-1.343c6.9-1.574,13.794-3.2,20.711-4.715a464.373,464.373,0,0,1,67.484-9.18c2.433-.168,3.075-1.374,3.777-3.216q11.8-31,23.691-61.971c.494-1.292,1.05-2.56,1.576-3.839Z" transform="translate(-808.388 -5402.16)" fill="#afafaf"/>
    <path id="Path_1155" data-name="Path 1155" d="M1016.336,5446.432c6.595,1.991,7.725,1.719,11.349-3.147v14.5c-2.326-4.689-6.439-6.357-11.913-6.409-.508,4.318-1.183,8.672-1.474,13.051-.173,2.589,1.263,4.325,3.921,5.1,5.366,1.565,11.45-.8,16.1-6.707,1.52,8.213,6.687,11.871,14.495,12.06a9.335,9.335,0,0,0,4.054-.881c2.823-1.326,3.431-3.885,1.41-6.305a23.752,23.752,0,0,0-4.489-3.876c-2.472-1.772-5.171-3.236-7.589-5.074-5.367-4.08-6.84-9.963-4.186-15.923,2.407-5.407,7.8-8.017,14.31-6.7,2.623.53,5.156,1.5,7.731,2.268,2.425.723,4.852,1.442,7.45,2.214,0,1.086.1,2.473-.02,3.843a31.749,31.749,0,0,1-1.768,8.865,26.466,26.466,0,0,1-1.623-2.842c-1.611-3.8-3.83-7.055-7.973-8.345-2.469-.77-5.106-.8-6.495,1.862-1.443,2.768.227,4.655,2.5,6.084,3.074,1.93,6.243,3.72,9.23,5.774,6.361,4.374,7.905,8.165,6.171,14.532a13.283,13.283,0,0,1-12.957,10.017c-5.262-.093-10.523-1.607-15.733-2.731a58.175,58.175,0,0,1-7.141-2.544,5.709,5.709,0,0,1-2.415.584c-13.83-1.664-27.647-3.422-41.464-5.185-.4-.05-.757-.4-1.451-.793,4.392-3.417,2.825-7.351,1.217-11.129a74.538,74.538,0,0,0-4.376-8.37,2.77,2.77,0,0,0-2.207-1.024c-.487.033-1.258,1.071-1.3,1.7-.309,4.789-.628,9.589-.581,14.382.014,1.409,1.2,2.805,2.095,4.733-3.154-.242-6.1-.441-9.037-.724a1.4,1.4,0,0,1-.993-.792c-1.105-4.008-2.929-8.017-3.028-12.062-.19-7.707.634-15.435,1-23.157.127-2.68.4-5.464-3.683-7.077,1.52-.554,2.175-1.028,2.793-.985,8.76.615,17.523,1.231,26.27,2.013,2.723.243,5.408,1.073,6.493,4.034a8.327,8.327,0,0,1-1.668,8.859,59.135,59.135,0,0,1-6,5.134c2.8,7.22,5.648,14.542,8.84,22.757.793-4.674,1.622-8.6,2.095-12.571.749-6.277,1.463-12.574,1.77-18.883.122-2.525-.874-5.1-1.486-8.309l30.19,4.48c.351,3.217.688,6.3,1.167,10.7-1.713-1.164-2.9-1.6-3.508-2.449-2.567-3.624-6.17-5.242-10.387-5.873-2.545-.381-4.128.695-4.577,3.177C1017,5440.929,1016.722,5443.607,1016.336,5446.432Zm-35.743-2.229c5.979-.64,9.6-4.2,9.281-9.163-.221-3.44-2.693-3.983-5.387-4.3-2.822-.334-3.818,1.287-3.875,3.729C980.536,5437.714,980.593,5440.963,980.593,5444.2Z" transform="translate(-824.199 -5404.498)" fill="#afafaf"/>
    <path id="Path_1156" data-name="Path 1156" d="M845.149,5463.542c-1.507-9.217-2.952-18.447-4.613-27.637-.171-.946-1.633-1.658-3.346-3.287l20.629-3.561c-2.24,5.4,1.886,7.7,4.183,10.757a94.426,94.426,0,0,0,8.841,10.167c-.791-7.3.824-14.976-5.116-22.222l43.708-3.4c.917,4.157,1.723,7.8,2.526,11.438l-.861.731c-3.414-3.5-6.637-7.459-12.153-5.843,0,4.189-.08,8.364.019,12.536.144,6.084.322,12.171.7,18.244a10.688,10.688,0,0,0,1.586,4.474c1.11,1.9.645,2.959-1.392,3.117-4.882.379-9.778.579-14.771.856,0-.729-.157-1.5.022-1.588,3.536-1.753,2.921-4.995,2.786-7.941-.441-9.58-1-19.152-1.52-28.709-7.619-.163-11.207,3.54-10.632,10.845.486,6.184.862,12.391,1.715,18.528.435,3.131,1.812,6.133,2.857,9.5a46.518,46.518,0,0,1-6.638.684,4.865,4.865,0,0,1-2.993-1.863c-6.388-7.635-12.682-15.35-19.009-23.038a12.517,12.517,0,0,0-3.547-3.226c.857,5.33,1.7,10.66,2.576,15.986.322,1.962.794,3.9,1.035,5.875.4,3.273.851,6.405,5.159,6.651.245.014.453.7.946,1.524L832,5477.552c2.455-3.431,2.526-6.477-.077-9.392-3.18-3.559-7.4-4.3-11.874-3.778a2.862,2.862,0,0,0-1.82,1.907,56.547,56.547,0,0,0-.761,6.617c-.251,2.983.136,5.649,3.759,7.021l-12.973,3.1c3.509-9.421,2.823-18.853,4.215-27.979a88.792,88.792,0,0,0,.9-9.788c.089-2.191-.249-4.4-.441-7.276l18.886-4.381,1.018.648c-3.826,2.892-1.695,5.339-.3,7.874q5.895,10.745,11.739,21.518Zm-24.132-15.913-.743.225q-.495,5.637-.989,11.282l8.322.778Z" transform="translate(-808.258 -5404.411)" fill="#afafaf"/>
    <path id="Path_1157" data-name="Path 1157" d="M1036.812,5505.709c-2.432,5.01-5.734,5.357-10.368,4.317a349.512,349.512,0,0,0-72.83-8.307c-5.256-.058-8.317,3.242-11.916,5.867-.506.369-.278,2.156.029,3.16,1.769,5.788,3.664,11.538,5.517,17.3l-.691.71-17.324-12.326-17.4,12.321-.772-.63c1.821-5.492,3.472-11.049,5.533-16.45,1.075-2.817.368-4.251-1.924-6.063a17.419,17.419,0,0,0-11.881-3.884,367.675,367.675,0,0,0-70.736,8.242c-6.243,1.337-6.23,1.4-10.261-4.214,6.814-1.353,13.439-2.733,20.089-3.979a463.348,463.348,0,0,1,71.881-7.818c8.109-.238,8.095-.217,10.8-7.9,1.32-3.751,2.7-7.481,4.073-11.212.059-.164.323-.251.874-.652,1.793,4.644,3.562,9.161,5.281,13.7,2.211,5.834,2.193,5.873,8.253,6.012a471.088,471.088,0,0,1,69.851,7.109C1020.826,5502.391,1028.7,5504.107,1036.812,5505.709Z" transform="translate(-809.63 -5409.464)" fill="#afafaf"/>
  </g>
</svg>
