<svg xmlns="http://www.w3.org/2000/svg" width="245.322" height="80.248" viewBox="0 0 245.322 80.248">
  <g id="Group_2068" data-name="Group 2068" transform="translate(-1258.258 -8439.684)">
    <g id="Group_1755" data-name="Group 1755" transform="translate(1258.258 8439.684)">
      <path id="Path_1215" data-name="Path 1215" d="M1138.148,6810.518v-66.884a6.68,6.68,0,0,1,6.683-6.683h231.956a6.714,6.714,0,0,1,1.3.128,6.653,6.653,0,0,1,2.409,1,6.678,6.678,0,0,1,2.97,5.557v66.883a6.661,6.661,0,0,1-.509,2.557,6.687,6.687,0,0,1-1.448,2.168,6.674,6.674,0,0,1-3.422,1.829,6.6,6.6,0,0,1-1.3.128H1144.83a6.61,6.61,0,0,1-1.3-.128,6.666,6.666,0,0,1-2.408-1,6.571,6.571,0,0,1-1.013-.831,6.671,6.671,0,0,1-1.448-2.167,6.664,6.664,0,0,1-.509-2.557Z" transform="translate(-1138.148 -6736.951)" fill="#313130"/>
      <path id="Path_1216" data-name="Path 1216" d="M1202.121,6789.994a39.852,39.852,0,0,1-3.593,6.707c-2.332,3.552-5.622,7.976-9.695,8.012-3.622.036-4.551-2.356-9.466-2.327s-5.94,2.371-9.56,2.337c-4.075-.037-7.191-4.031-9.523-7.584-6.525-9.931-7.207-21.586-3.182-27.783,2.859-4.4,7.369-6.982,11.611-6.982,4.318,0,7.033,2.369,10.6,2.369,3.463,0,5.574-2.371,10.567-2.371a14.088,14.088,0,0,1,10.622,5.608c-9.335,5.116-7.819,18.45,1.615,22.014" transform="translate(-1138.148 -6736.951)" fill="#fff"/>
      <path id="Path_1217" data-name="Path 1217" d="M1186.1,6758.4a12.116,12.116,0,0,0,2.689-8.977,13.085,13.085,0,0,0-8.453,4.547c-1.837,2.231-3.351,5.54-2.762,8.756a11.057,11.057,0,0,0,8.526-4.326" transform="translate(-1138.148 -6736.951)" fill="#fff"/>
      <path id="Path_1218" data-name="Path 1218" d="M1224.215,6773.73c.315,1.229.656,2.5,1.094,3.882l2.519,7.3h-7.168l2.483-7.344c.378-1.189.736-2.476,1.072-3.833m-2.218-4.522-9.346,27.509h4.281l2.788-8.446h9.05l2.87,8.446h4.4l-9.387-27.509Z" transform="translate(-1138.148 -6736.951)" fill="#fff"/>
      <path id="Path_1219" data-name="Path 1219" d="M1247.094,6779.783c3.71,0,5.371,3.438,5.371,6.844,0,4.393-2.119,7.12-5.53,7.12a5.046,5.046,0,0,1-4.9-3.86,5.3,5.3,0,0,1-.147-1.347v-3.348a6.43,6.43,0,0,1,.131-1.028c.021-.113.044-.226.06-.338a5.274,5.274,0,0,1,5.018-4.043m1.037-3.445a7.784,7.784,0,0,0-6.616,3.174l-.168-2.738h-3.807l.023.351c.112,1.706.161,3.582.161,6.275v21.2h4.161v-9.9a7.31,7.31,0,0,0,5.689,2.445,8.582,8.582,0,0,0,6.308-2.681,11.384,11.384,0,0,0,2.783-8.007,11.063,11.063,0,0,0-2.418-7.309,7.912,7.912,0,0,0-6.116-2.819" transform="translate(-1138.148 -6736.951)" fill="#fff"/>
      <path id="Path_1220" data-name="Path 1220" d="M1268.528,6779.783c3.708,0,5.37,3.438,5.37,6.844,0,4.393-2.121,7.12-5.531,7.12a5.045,5.045,0,0,1-4.9-3.86,5.353,5.353,0,0,1-.146-1.347v-3.348a6.232,6.232,0,0,1,.131-1.032c.023-.112.042-.222.06-.334a5.27,5.27,0,0,1,5.018-4.043m1.035-3.445a7.787,7.787,0,0,0-6.616,3.174l-.167-2.738h-3.805l.021.351c.112,1.708.16,3.582.16,6.275v21.2h4.163v-9.9a7.308,7.308,0,0,0,5.688,2.445,8.588,8.588,0,0,0,6.309-2.681,11.389,11.389,0,0,0,2.782-8.007,11.063,11.063,0,0,0-2.418-7.309,7.913,7.913,0,0,0-6.117-2.819" transform="translate(-1138.148 -6736.951)" fill="#fff"/>
      <path id="Path_1221" data-name="Path 1221" d="M1296.416,6780.862c-3.886-1.5-5.129-2.687-5.129-4.873,0-1.84,1.462-3.695,4.73-3.695a9.441,9.441,0,0,1,4.887,1.227l.352.216,1.175-3.473-.233-.137a12.071,12.071,0,0,0-6.061-1.359c-5.306,0-9.016,3.135-9.016,7.619,0,3.617,2.322,6.145,7.306,7.958,3.533,1.32,4.849,2.671,4.849,4.99,0,2.624-2.029,4.254-5.292,4.254a11.389,11.389,0,0,1-6-1.7l-.362-.232-1.117,3.554.206.136a14.25,14.25,0,0,0,7.032,1.808c7.155,0,9.692-4.362,9.692-8.1,0-3.851-2.034-6.227-7.021-8.2" transform="translate(-1138.148 -6736.951)" fill="#fff"/>
      <path id="Path_1222" data-name="Path 1222" d="M1310.928,6772.038l-4.083,1.28v3.458h-2.986v3.327h2.986v10.189c0,2.464.472,4.191,1.442,5.281a5.331,5.331,0,0,0,4.027,1.583,9.747,9.747,0,0,0,3.217-.5l.233-.082-.2-3.334-.4.125a6.3,6.3,0,0,1-1.935.223c-1.613,0-2.3-1.021-2.3-3.416V6780.1h5.022v-3.327h-5.022Z" transform="translate(-1138.148 -6736.951)" fill="#fff"/>
      <path id="Path_1223" data-name="Path 1223" d="M1326.143,6779.625c3.746,0,5.45,3.65,5.45,7.044,0,4.171-2.326,7.2-5.529,7.2h-.039c-3.158,0-5.45-2.978-5.45-7.079,0-3.565,1.724-7.164,5.568-7.164m.12-3.285c-5.824,0-9.891,4.346-9.891,10.566,0,6.035,3.937,10.25,9.573,10.25h.038c4.766,0,9.891-3.321,9.891-10.607a10.521,10.521,0,0,0-2.652-7.364,9.268,9.268,0,0,0-6.959-2.845" transform="translate(-1138.148 -6736.951)" fill="#fff"/>
      <path id="Path_1224" data-name="Path 1224" d="M1348.624,6776.531l-.25-.063a3.983,3.983,0,0,0-1.035-.13,5.938,5.938,0,0,0-5.219,3.35l-.122-2.914h-3.736l.025.351c.11,1.649.157,3.5.157,6l-.039,13.6h4.163v-10.609a10.62,10.62,0,0,1,.115-1.612c.469-2.548,2.188-4.2,4.378-4.2a10.807,10.807,0,0,1,1.117.07l.446.047Z" transform="translate(-1138.148 -6736.951)" fill="#fff"/>
      <path id="Path_1225" data-name="Path 1225" d="M1357.7,6779.465a4.115,4.115,0,0,1,3.056,1.165,5.931,5.931,0,0,1,1.434,3.874H1352.7c.386-2.4,1.89-5.039,5-5.039m.277-3.166c-5.54,0-9.41,4.426-9.41,10.767,0,6.1,3.849,10.049,9.81,10.049a15.984,15.984,0,0,0,6.59-1.264l.25-.114-.8-3.1-.348.14a12.88,12.88,0,0,1-5.214.933c-1.808,0-5.98-.6-6.235-6.034l13.434.039.055-.264a9.25,9.25,0,0,0,.125-1.739c0-4.342-2.161-9.412-8.257-9.412" transform="translate(-1138.148 -6736.951)" fill="#fff"/>
      <path id="Path_1226" data-name="Path 1226" d="M1214.54,6761.947a13.315,13.315,0,0,0,1.889.078c3.994.019,6.16-2.009,6.16-5.524.023-3.111-1.91-5.024-5.858-5.024a12.056,12.056,0,0,0-2.191.173Zm-1.889-11.532a29.987,29.987,0,0,1,3.992-.271c2.684,0,4.594.542,5.86,1.6a5.7,5.7,0,0,1,2.063,4.693,6.6,6.6,0,0,1-2.082,5.064c-1.375,1.215-3.608,1.872-6.42,1.872a29.067,29.067,0,0,1-3.413-.155Z" transform="translate(-1138.148 -6736.951)" fill="#fff"/>
      <path id="Path_1227" data-name="Path 1227" d="M1231.323,6762.2c1.8,0,3.157-1.526,3.157-3.652,0-1.584-.882-3.573-3.113-3.573-2.212,0-3.177,1.855-3.177,3.632,0,2.048,1.288,3.593,3.112,3.593Zm-.063,1.275a4.691,4.691,0,0,1-4.979-4.81,4.822,4.822,0,0,1,5.149-4.964,4.656,4.656,0,0,1,5,4.791,4.84,4.84,0,0,1-5.149,4.983Z" transform="translate(-1138.148 -6736.951)" fill="#fff"/>
      <path id="Path_1228" data-name="Path 1228" d="M1239.421,6753.911l1.394,4.734c.279,1.043.558,2.026.752,2.994h.063c.237-.947.581-1.951.925-2.975l1.7-4.753h1.587l1.61,4.675c.387,1.1.688,2.106.923,3.053h.065a25.655,25.655,0,0,1,.793-3.034l1.482-4.694h1.866l-3.348,9.35h-1.717l-1.587-4.462a31.081,31.081,0,0,1-.925-3.092h-.042a25.766,25.766,0,0,1-.944,3.109l-1.673,4.445h-1.719l-3.134-9.35Z" transform="translate(-1138.148 -6736.951)" fill="#fff"/>
      <path id="Path_1229" data-name="Path 1229" d="M1254.468,6756.44c0-.984-.023-1.757-.088-2.531h1.677l.107,1.527h.042a3.939,3.939,0,0,1,3.435-1.738c1.437,0,3.67.771,3.67,3.979v5.583h-1.888v-5.39c0-1.507-.624-2.781-2.405-2.781a2.7,2.7,0,0,0-2.533,1.738,2.305,2.305,0,0,0-.128.794v5.639h-1.889Z" transform="translate(-1138.148 -6736.951)" fill="#fff"/>
      <rect id="Rectangle_2753" data-name="Rectangle 2753" width="1.889" height="13.714" transform="translate(128.233 12.594)" fill="#fff"/>
      <path id="Path_1230" data-name="Path 1230" d="M1275.7,6762.2c1.8,0,3.155-1.526,3.155-3.652,0-1.584-.88-3.573-3.111-3.573-2.212,0-3.178,1.855-3.178,3.632,0,2.048,1.287,3.593,3.113,3.593Zm-.063,1.275a4.691,4.691,0,0,1-4.979-4.81,4.822,4.822,0,0,1,5.149-4.964,4.656,4.656,0,0,1,5,4.791,4.841,4.841,0,0,1-5.151,4.983Z" transform="translate(-1138.148 -6736.951)" fill="#fff"/>
      <path id="Path_1231" data-name="Path 1231" d="M1288.664,6758.489c-2.061-.038-4.4.29-4.4,2.106a1.58,1.58,0,0,0,1.761,1.623,2.615,2.615,0,0,0,2.552-1.566,1.523,1.523,0,0,0,.088-.541Zm1.845,2.531a14.417,14.417,0,0,0,.149,2.24h-1.694l-.172-1.177h-.063a4,4,0,0,1-3.178,1.389c-2.1,0-3.175-1.332-3.175-2.685,0-2.261,2.231-3.5,6.244-3.478v-.192c0-.772-.235-2.182-2.359-2.163a5.432,5.432,0,0,0-2.727.695l-.43-1.14a7.326,7.326,0,0,1,3.434-.811c3.2,0,3.971,1.951,3.971,3.825Z" transform="translate(-1138.148 -6736.951)" fill="#fff"/>
      <path id="Path_1232" data-name="Path 1232" d="M1300.619,6757.716a2.823,2.823,0,0,0-.086-.734,2.729,2.729,0,0,0-2.724-1.95c-1.956,0-3.113,1.545-3.113,3.594,0,1.911,1.052,3.475,3.069,3.475a2.809,2.809,0,0,0,2.768-2.027,2.654,2.654,0,0,0,.086-.735Zm1.889-8.169v11.3c0,.829.023,1.775.086,2.414H1300.9l-.085-1.622h-.044a3.885,3.885,0,0,1-3.519,1.835,4.46,4.46,0,0,1-4.467-4.753,4.661,4.661,0,0,1,4.658-5.023,3.575,3.575,0,0,1,3.137,1.412h.04v-5.563Z" transform="translate(-1138.148 -6736.951)" fill="#fff"/>
      <path id="Path_1233" data-name="Path 1233" d="M1314.487,6762.2c1.8,0,3.154-1.526,3.154-3.652,0-1.584-.879-3.573-3.111-3.573-2.212,0-3.177,1.855-3.177,3.632,0,2.048,1.288,3.593,3.112,3.593Zm-.065,1.275a4.692,4.692,0,0,1-4.979-4.81,4.824,4.824,0,0,1,5.151-4.964,4.655,4.655,0,0,1,5,4.791,4.841,4.841,0,0,1-5.149,4.983Z" transform="translate(-1138.148 -6736.951)" fill="#fff"/>
      <path id="Path_1234" data-name="Path 1234" d="M1321.979,6756.44c0-.984-.023-1.757-.086-2.531h1.675l.108,1.527h.041a3.94,3.94,0,0,1,3.436-1.738c1.437,0,3.669.771,3.669,3.979v5.583h-1.889v-5.39c0-1.507-.622-2.781-2.4-2.781a2.7,2.7,0,0,0-2.533,1.738,2.305,2.305,0,0,0-.128.794v5.639h-1.889Z" transform="translate(-1138.148 -6736.951)" fill="#fff"/>
      <path id="Path_1235" data-name="Path 1235" d="M1340.719,6751.671v2.24h2.7v1.295h-2.7v5.04c0,1.159.365,1.816,1.417,1.816a3.9,3.9,0,0,0,1.1-.115l.084,1.3a5.718,5.718,0,0,1-1.675.23,2.857,2.857,0,0,1-2.038-.714,3.389,3.389,0,0,1-.73-2.453v-5.1h-1.61v-1.295h1.61v-1.721Z" transform="translate(-1138.148 -6736.951)" fill="#fff"/>
      <path id="Path_1236" data-name="Path 1236" d="M1345.547,6749.545h1.889v5.834h.044a3.217,3.217,0,0,1,1.352-1.2,4,4,0,0,1,1.933-.482c1.394,0,3.625.771,3.625,4v5.565H1352.5v-5.37c0-1.527-.623-2.782-2.4-2.782a2.714,2.714,0,0,0-2.533,1.7,1.867,1.867,0,0,0-.13.812v5.639h-1.889Z" transform="translate(-1138.148 -6736.951)" fill="#fff"/>
      <path id="Path_1237" data-name="Path 1237" d="M1364.052,6757.658a2.507,2.507,0,0,0-2.6-2.762,2.939,2.939,0,0,0-2.9,2.762Zm-5.516,1.217c.044,2.3,1.652,3.246,3.541,3.246a7.914,7.914,0,0,0,2.879-.465l.343,1.2a9.3,9.3,0,0,1-3.478.6c-3.178,0-5.109-1.912-5.109-4.713a4.759,4.759,0,0,1,4.891-5.061c3.394,0,4.273,2.684,4.273,4.4a4.035,4.035,0,0,1-.063.812Z" transform="translate(-1138.148 -6736.951)" fill="#fff"/>
    </g>
  </g>
</svg>
