<svg id="oJEyaO" xmlns="http://www.w3.org/2000/svg" width="119.954" height="144.575" viewBox="0 0 119.954 144.575">
  <g id="Group_1718" data-name="Group 1718">
    <path id="Path_1158" data-name="Path 1158" d="M1392.034,5484.476h-6.447v-41.7h7.109q4.089,13.417,8.193,26.886l.279-.035v-26.8h6.385v41.754c-2.007,0-3.949.1-5.87-.064-.5-.042-1.158-.808-1.351-1.375-2.738-8.088-5.409-16.2-8.3-24.312Z" transform="translate(-1336.568 -5391.587)" fill="#afafaf"/>
    <path id="Path_1159" data-name="Path 1159" d="M1412.185,5525.719V5541.3h-6.329v-41.946c4.613.213,9.208.128,13.712.726,3.692.49,5.84,3.239,6.218,6.9a46.962,46.962,0,0,1,.1,9.78c-.2,1.871-1.344,3.72-2.368,5.393a2.833,2.833,0,0,0-.521,2.532c1.494,5.507,2.9,11.038,4.388,16.741-2.12,0-4.067.077-6-.057a1.9,1.9,0,0,1-1.23-1.213c-1.071-4.006-2.182-8.011-2.983-12.075-.4-2.049-1.271-2.8-3.255-2.455A16.45,16.45,0,0,1,1412.185,5525.719Zm.069-6.293c.9,0,1.638,0,2.375,0a15.144,15.144,0,0,0,1.879-.047,3.549,3.549,0,0,0,3.229-3.366c.084-2.317.064-4.642-.013-6.96a2.607,2.607,0,0,0-2.108-2.767,53.5,53.5,0,0,0-5.362-.333Z" transform="translate(-1338.623 -5397.324)" fill="#afafaf"/>
    <path id="Path_1160" data-name="Path 1160" d="M1338.173,5499.655c3.909,0,7.76-.3,11.544.074a9.567,9.567,0,0,1,8.6,9.676q.166,11.049,0,22.1a9.917,9.917,0,0,1-10.031,9.92c-3.328.055-6.657.01-10.115.01Zm6.452,6.334v29.2c1.306,0,2.494.052,3.674-.011a3.566,3.566,0,0,0,3.726-3.855q.046-10.744,0-21.49a3.586,3.586,0,0,0-3.574-3.826C1347.215,5505.917,1345.966,5505.989,1344.625,5505.989Z" transform="translate(-1331.76 -5397.344)" fill="#afafaf"/>
    <path id="Path_1161" data-name="Path 1161" d="M1455.216,5520.489c0,3.649.017,7.3,0,10.947-.032,6.067-4.357,10.445-10.278,10.427a9.966,9.966,0,0,1-10.162-10.335q-.034-11.136,0-22.272a10.217,10.217,0,0,1,20.433-.092C1455.244,5512.939,1455.215,5516.714,1455.216,5520.489Zm-6.752,0c0-3.777.023-7.555-.008-11.331a3.572,3.572,0,0,0-3.711-3.851,3.536,3.536,0,0,0-3.621,3.753q-.054,11.235,0,22.472a3.564,3.564,0,0,0,3.718,3.845c2.18-.02,3.605-1.535,3.621-3.936C1448.483,5527.786,1448.464,5524.135,1448.464,5520.484Z" transform="translate(-1341.553 -5397.289)" fill="#afafaf"/>
    <path id="Path_1162" data-name="Path 1162" d="M1356.327,5463.583c0-3.9-.1-7.8.024-11.7a10.008,10.008,0,0,1,8.478-9.651,10.211,10.211,0,0,1,11.456,6.815,9.444,9.444,0,0,1,.489,2.771c.039,7.8.122,15.6-.01,23.4a9.974,9.974,0,0,1-8.674,9.676,10.112,10.112,0,0,1-11.249-6.842,13.589,13.589,0,0,1-.5-3.713c-.064-3.586-.022-7.172-.022-10.758Zm6.3-.152c0,3.591-.011,7.182,0,10.773.01,2.645,1.439,4.28,3.71,4.295s3.729-1.623,3.734-4.266q.022-10.772,0-21.546c0-2.617-1.489-4.318-3.707-4.322s-3.727,1.7-3.738,4.292C1362.619,5456.248,1362.631,5459.84,1362.631,5463.431Z" transform="translate(-1333.598 -5391.521)" fill="#afafaf"/>
    <path id="Path_1163" data-name="Path 1163" d="M1397.1,5520.372c0,3.712.021,7.424,0,11.136a10.05,10.05,0,0,1-10.183,10.354,9.914,9.914,0,0,1-10.26-10.218q-.063-11.229,0-22.46a10.219,10.219,0,0,1,20.438.053C1397.128,5512.948,1397.1,5516.66,1397.1,5520.372Zm-6.753.2c0-3.777.021-7.555-.008-11.333a3.708,3.708,0,1,0-7.405-.084q-.068,11.145,0,22.29a3.612,3.612,0,0,0,3.677,3.924c2.265.022,3.718-1.514,3.735-4.029C1390.363,5527.751,1390.345,5524.162,1390.345,5520.572Z" transform="translate(-1335.659 -5397.289)" fill="#afafaf"/>
    <path id="Path_1164" data-name="Path 1164" d="M1397.064,5427.59c2.2-12.639,4.329-25.023,6.507-37.4.772-4.387.82-4.378,5.392-4.378h4.249c2.39,13.941,4.755,27.744,7.149,41.715h-6.749q-.768-4.639-1.562-9.424h-6.67c-.54,3.155-1.077,6.288-1.626,9.487Zm11.85-31.037-.36.011c-.721,5.043-1.442,10.086-2.172,15.194h4.706C1410.347,5406.58,1409.631,5401.566,1408.914,5396.553Z" transform="translate(-1337.732 -5385.812)" fill="#afafaf"/>
    <path id="Path_1165" data-name="Path 1165" d="M1450.733,5460.444h8.413v6.343h-8.42v11.418h11.745v6.267h-18.216v-41.666h18.178v6.153h-11.7Z" transform="translate(-1342.517 -5391.591)" fill="#afafaf"/>
    <path id="Path_1166" data-name="Path 1166" d="M1349.288,5442.8v6.147h-11.761v11.46H1346v6.338h-8.537v17.714h-6.425V5442.8Z" transform="translate(-1331.037 -5391.59)" fill="#afafaf"/>
    <path id="Path_1167" data-name="Path 1167" d="M1416.1,5442.79h19.917V5449h-6.686v35.466h-6.478v-35.362H1416.1Z" transform="translate(-1339.662 -5391.589)" fill="#afafaf"/>
    <path id="Path_1168" data-name="Path 1168" d="M1372.6,5427.543v-41.579h6.354v35.36h11.034v6.219Z" transform="translate(-1335.251 -5385.828)" fill="#afafaf"/>
    <path id="Path_1169" data-name="Path 1169" d="M1372.439,5510.253c-1.561,3.706-2.837,7.036-4.4,10.226-.374.765-1.7,1.061-3.027,1.821.976-4.045,1.767-7.419,2.635-10.773a1.474,1.474,0,0,1,.984-.826C1369.665,5510.489,1370.733,5510.438,1372.439,5510.253Z" transform="translate(-1334.482 -5398.43)" fill="#afafaf"/>
  </g>
</svg>
