<svg xmlns="http://www.w3.org/2000/svg" xmlns:xlink="http://www.w3.org/1999/xlink" width="2155.175" height="1078" viewBox="0 0 2155.175 1078">
  <defs>
    <linearGradient id="linear-gradient" x1="0.5" y1="0.471" x2="0.5" y2="1.164" gradientUnits="objectBoundingBox">
      <stop offset="0" stop-color="#fff"/>
      <stop offset="1" stop-color="#d0d0d0"/>
    </linearGradient>
    <linearGradient id="linear-gradient-2" y1="0" y2="1" xlink:href="#linear-gradient"/>
    <filter id="Path_1452" x="1577.675" y="280.085" width="552" height="390" filterUnits="userSpaceOnUse">
      <feOffset dy="3" input="SourceAlpha"/>
      <feGaussianBlur stdDeviation="3" result="blur"/>
      <feFlood flood-opacity="0.161"/>
      <feComposite operator="in" in2="blur"/>
      <feComposite in="SourceGraphic"/>
    </filter>
    <filter id="Path_1452-2" x="1577.675" y="280.085" width="552" height="390" filterUnits="userSpaceOnUse">
      <feOffset dy="3" input="SourceAlpha"/>
      <feGaussianBlur stdDeviation="3" result="blur-2"/>
      <feFlood flood-opacity="0.161" result="color"/>
      <feComposite operator="out" in="SourceGraphic" in2="blur-2"/>
      <feComposite operator="in" in="color"/>
      <feComposite operator="in" in2="SourceGraphic"/>
    </filter>
    <filter id="Path_1454" x="1136.071" y="268.085" width="402" height="771" filterUnits="userSpaceOnUse">
      <feOffset dy="-3" input="SourceAlpha"/>
      <feGaussianBlur stdDeviation="5" result="blur-3"/>
      <feFlood flood-opacity="0.251"/>
      <feComposite operator="in" in2="blur-3"/>
      <feComposite in="SourceGraphic"/>
    </filter>
    <filter id="Path_1455" x="1163.223" y="299.671" width="149.622" height="720.914" filterUnits="userSpaceOnUse">
      <feOffset dx="-3" input="SourceAlpha"/>
      <feGaussianBlur stdDeviation="3" result="blur-4"/>
      <feFlood flood-opacity="0.251"/>
      <feComposite operator="in" in2="blur-4"/>
      <feComposite in="SourceGraphic"/>
    </filter>
    <filter id="Path_1457" x="82.332" y="714.305" width="245.654" height="59.639" filterUnits="userSpaceOnUse">
      <feOffset dy="3" input="SourceAlpha"/>
      <feGaussianBlur stdDeviation="5" result="blur-5"/>
      <feFlood flood-opacity="0.161"/>
      <feComposite operator="in" in2="blur-5"/>
      <feComposite in="SourceGraphic"/>
    </filter>
    <filter id="Path_1458" x="224.434" y="666.652" width="172.029" height="394.629" filterUnits="userSpaceOnUse">
      <feOffset dy="3" input="SourceAlpha"/>
      <feGaussianBlur stdDeviation="5" result="blur-6"/>
      <feFlood flood-opacity="0.161"/>
      <feComposite operator="in" in2="blur-6"/>
      <feComposite in="SourceGraphic"/>
    </filter>
    <filter id="Path_1459" x="10.991" y="665.496" width="172.029" height="394.629" filterUnits="userSpaceOnUse">
      <feOffset dy="3" input="SourceAlpha"/>
      <feGaussianBlur stdDeviation="5" result="blur-7"/>
      <feFlood flood-opacity="0.161"/>
      <feComposite operator="in" in2="blur-7"/>
      <feComposite in="SourceGraphic"/>
    </filter>
    <filter id="Path_1460" x="749.653" y="743.945" width="152.646" height="317.197" filterUnits="userSpaceOnUse">
      <feOffset dy="3" input="SourceAlpha"/>
      <feGaussianBlur stdDeviation="5" result="blur-8"/>
      <feFlood flood-opacity="0.161"/>
      <feComposite operator="in" in2="blur-8"/>
      <feComposite in="SourceGraphic"/>
    </filter>
    <filter id="Path_1461" x="703.15" y="714.305" width="245.653" height="59.639" filterUnits="userSpaceOnUse">
      <feOffset dy="3" input="SourceAlpha"/>
      <feGaussianBlur stdDeviation="5" result="blur-9"/>
      <feFlood flood-opacity="0.161"/>
      <feComposite operator="in" in2="blur-9"/>
      <feComposite in="SourceGraphic"/>
    </filter>
    <filter id="Path_1462" x="845.251" y="666.652" width="172.029" height="394.629" filterUnits="userSpaceOnUse">
      <feOffset dy="3" input="SourceAlpha"/>
      <feGaussianBlur stdDeviation="5" result="blur-10"/>
      <feFlood flood-opacity="0.161"/>
      <feComposite operator="in" in2="blur-10"/>
      <feComposite in="SourceGraphic"/>
    </filter>
    <filter id="Path_1463" x="631.807" y="665.496" width="172.029" height="394.629" filterUnits="userSpaceOnUse">
      <feOffset dy="3" input="SourceAlpha"/>
      <feGaussianBlur stdDeviation="5" result="blur-11"/>
      <feFlood flood-opacity="0.161"/>
      <feComposite operator="in" in2="blur-11"/>
      <feComposite in="SourceGraphic"/>
    </filter>
    <filter id="Path_1460-2" x="1795.109" y="743.945" width="152.646" height="317.197" filterUnits="userSpaceOnUse">
      <feOffset dy="3" input="SourceAlpha"/>
      <feGaussianBlur stdDeviation="5" result="blur-12"/>
      <feFlood flood-opacity="0.161"/>
      <feComposite operator="in" in2="blur-12"/>
      <feComposite in="SourceGraphic"/>
    </filter>
    <filter id="Path_1461-2" x="1748.606" y="714.305" width="245.653" height="59.639" filterUnits="userSpaceOnUse">
      <feOffset dy="3" input="SourceAlpha"/>
      <feGaussianBlur stdDeviation="5" result="blur-13"/>
      <feFlood flood-opacity="0.161"/>
      <feComposite operator="in" in2="blur-13"/>
      <feComposite in="SourceGraphic"/>
    </filter>
    <filter id="Path_1462-2" x="1890.708" y="666.652" width="172.029" height="394.629" filterUnits="userSpaceOnUse">
      <feOffset dy="3" input="SourceAlpha"/>
      <feGaussianBlur stdDeviation="5" result="blur-14"/>
      <feFlood flood-opacity="0.161"/>
      <feComposite operator="in" in2="blur-14"/>
      <feComposite in="SourceGraphic"/>
    </filter>
    <filter id="Path_1463-2" x="1677.264" y="665.496" width="172.029" height="394.629" filterUnits="userSpaceOnUse">
      <feOffset dy="3" input="SourceAlpha"/>
      <feGaussianBlur stdDeviation="5" result="blur-15"/>
      <feFlood flood-opacity="0.161"/>
      <feComposite operator="in" in2="blur-15"/>
      <feComposite in="SourceGraphic"/>
    </filter>
    <filter id="Rectangle_2787">
      <feOffset dy="6" input="SourceAlpha"/>
      <feGaussianBlur stdDeviation="5" result="blur-16"/>
      <feFlood flood-opacity="0.161" result="color-2"/>
      <feComposite operator="out" in="SourceGraphic" in2="blur-16"/>
      <feComposite operator="in" in="color-2"/>
      <feComposite operator="in" in2="SourceGraphic"/>
    </filter>
  </defs>
  <g id="Group_2067" data-name="Group 2067" transform="translate(-64 104)">
    <rect id="Rectangle_2784" data-name="Rectangle 2784" width="1920" height="1078" transform="translate(64 -104)" fill="url(#linear-gradient)"/>
    <g id="Group_1923" data-name="Group 1923" transform="translate(-1311.401 -1881.185)" opacity="0.497">
      <rect id="Rectangle_2785" data-name="Rectangle 2785" width="513" height="351" rx="28.48" transform="translate(2972.576 2073.77)" fill="url(#linear-gradient-2)"/>
      <g data-type="innerShadowGroup">
        <g transform="matrix(1, 0, 0, 1, 1375.4, 1777.18)" filter="url(#Path_1452)">
          <path id="Path_1452-3" data-name="Path 1452" d="M3523.1,2435.27h-456.04a39.025,39.025,0,0,1-38.98-38.981V2102.25a39.024,39.024,0,0,1,38.98-38.98H3523.1a39.024,39.024,0,0,1,38.98,38.98v294.039A39.024,39.024,0,0,1,3523.1,2435.27Zm-456.04-351a18,18,0,0,0-17.98,17.98v294.039a18,18,0,0,0,17.98,17.981H3523.1a18,18,0,0,0,17.98-17.981V2102.25a18,18,0,0,0-17.98-17.98Z" transform="translate(-1441.4 -1777.18)" fill="#fff"/>
        </g>
        <g transform="matrix(1, 0, 0, 1, 1375.4, 1777.18)" filter="url(#Path_1452-2)">
          <path id="Path_1452-4" data-name="Path 1452" d="M3523.1,2435.27h-456.04a39.025,39.025,0,0,1-38.98-38.981V2102.25a39.024,39.024,0,0,1,38.98-38.98H3523.1a39.024,39.024,0,0,1,38.98,38.98v294.039A39.024,39.024,0,0,1,3523.1,2435.27Zm-456.04-351a18,18,0,0,0-17.98,17.98v294.039a18,18,0,0,0,17.98,17.981H3523.1a18,18,0,0,0,17.98-17.981V2102.25a18,18,0,0,0-17.98-17.98Z" transform="translate(-1441.4 -1777.18)" fill="#fff"/>
        </g>
      </g>
      <path id="Path_1453" data-name="Path 1453" d="M3435.486,2509.239v-22.368a5.591,5.591,0,0,0-5.494-5.67H3348.63a5.352,5.352,0,0,1-8.081,0h-81.361a5.352,5.352,0,0,1-8.081,0h-81.362a5.352,5.352,0,0,1-8.081,0H3080.3a5.353,5.353,0,0,1-8.081,0H2990.86a5.353,5.353,0,0,1-8.081,0h-81.361a5.353,5.353,0,0,1-8.081,0h-81.361a5.352,5.352,0,0,1-8.081,0h-81.362a5.352,5.352,0,0,1-8.081,0H2633.09a5.352,5.352,0,0,1-8.08,0h-81.362a5.352,5.352,0,0,1-8.081,0H2454.2a5.352,5.352,0,0,1-8.081,0h-81.362a5.352,5.352,0,0,1-8.081,0H2275.32a5.351,5.351,0,0,1-8.08,0h-81.362a5.352,5.352,0,0,1-8.08,0h-81.362a5.352,5.352,0,0,1-8.081,0h-81.361a5.353,5.353,0,0,1-8.081,0H1917.55a5.352,5.352,0,0,1-8.081,0h-81.361a5.353,5.353,0,0,1-8.081,0h-81.361a5.352,5.352,0,0,1-8.081,0h-81.361a5.352,5.352,0,0,1-8.081,0H1559.78a5.352,5.352,0,0,1-8.081,0h-81.361a5.353,5.353,0,0,1-8.081,0h-81.362a5.59,5.59,0,0,0-5.493,5.67v22.368a5.59,5.59,0,0,0,5.493,5.67h39.877a5.78,5.78,0,0,0-.649,2.67v22.369a5.747,5.747,0,0,0,1.061,3.335h-40.289a5.59,5.59,0,0,0-5.493,5.67v22.368a5.59,5.59,0,0,0,5.493,5.67h39.877a5.78,5.78,0,0,0-.649,2.67v22.369a5.747,5.747,0,0,0,1.061,3.335h-40.289a5.59,5.59,0,0,0-5.493,5.67V2633.4a5.59,5.59,0,0,0,5.493,5.67h39.877a5.78,5.78,0,0,0-.649,2.67v22.369a5.745,5.745,0,0,0,1.061,3.335h-40.289a5.59,5.59,0,0,0-5.493,5.67v22.368a5.59,5.59,0,0,0,5.493,5.67h39.877a5.779,5.779,0,0,0-.649,2.67v22.368a5.754,5.754,0,0,0,1.061,3.336h-40.289a5.59,5.59,0,0,0-5.493,5.67v22.368a5.59,5.59,0,0,0,5.493,5.67h39.877a5.778,5.778,0,0,0-.649,2.67v22.368a5.591,5.591,0,0,0,5.494,5.67h81.361a5.354,5.354,0,0,1,8.081,0h81.361a5.354,5.354,0,0,1,8.081,0h81.361a5.354,5.354,0,0,1,8.081,0H1775.3a5.354,5.354,0,0,1,8.081,0h81.361a5.354,5.354,0,0,1,8.081,0h81.361a5.354,5.354,0,0,1,8.081,0h81.361a5.354,5.354,0,0,1,8.081,0h81.362a5.354,5.354,0,0,1,8.081,0h81.361a5.354,5.354,0,0,1,8.081,0h81.362a5.354,5.354,0,0,1,8.081,0H2401.4a5.354,5.354,0,0,1,8.08,0h81.362a5.354,5.354,0,0,1,8.081,0h81.361a5.354,5.354,0,0,1,8.081,0h81.361a5.355,5.355,0,0,1,8.081,0h81.361a5.353,5.353,0,0,1,8.08,0h81.362a5.354,5.354,0,0,1,8.08,0h81.362a5.354,5.354,0,0,1,8.081,0H3027.5a5.354,5.354,0,0,1,8.081,0h81.361a5.354,5.354,0,0,1,8.081,0h81.361a5.355,5.355,0,0,1,8.081,0h81.361a5.354,5.354,0,0,1,8.081,0h81.362a5.591,5.591,0,0,0,5.494-5.67v-22.368a5.763,5.763,0,0,0-.65-2.67h39.877a5.59,5.59,0,0,0,5.494-5.67V2735.2a5.59,5.59,0,0,0-5.494-5.67H3389.7a5.754,5.754,0,0,0,1.061-3.336v-22.368a5.763,5.763,0,0,0-.65-2.67h39.877a5.59,5.59,0,0,0,5.494-5.67v-22.368a5.59,5.59,0,0,0-5.494-5.67H3389.7a5.751,5.751,0,0,0,1.061-3.335v-22.369a5.764,5.764,0,0,0-.65-2.67h39.877a5.59,5.59,0,0,0,5.494-5.67v-22.368a5.59,5.59,0,0,0-5.494-5.67H3389.7a5.753,5.753,0,0,0,1.061-3.335v-22.369a5.764,5.764,0,0,0-.65-2.67h39.877a5.59,5.59,0,0,0,5.494-5.67v-22.368a5.59,5.59,0,0,0-5.494-5.67H3389.7a5.753,5.753,0,0,0,1.061-3.335v-22.369a5.764,5.764,0,0,0-.65-2.67h39.877A5.59,5.59,0,0,0,3435.486,2509.239ZM3348.63,2484.2h81.361a2.632,2.632,0,0,1,2.587,2.67v22.368a2.632,2.632,0,0,1-2.587,2.67H3348.63a2.632,2.632,0,0,1-2.587-2.67v-22.368A2.632,2.632,0,0,1,3348.63,2484.2Zm-89.442,0h81.361a2.632,2.632,0,0,1,2.587,2.67v22.368a2.632,2.632,0,0,1-2.587,2.67h-81.361a2.632,2.632,0,0,1-2.587-2.67v-22.368A2.632,2.632,0,0,1,3259.188,2484.2Zm83.948,87.12a2.632,2.632,0,0,1-2.587,2.67h-81.361a2.632,2.632,0,0,1-2.587-2.67v-22.368a2.632,2.632,0,0,1,2.587-2.67h81.361a2.632,2.632,0,0,1,2.587,2.67Zm0,62.082a2.632,2.632,0,0,1-2.587,2.67h-81.361a2.632,2.632,0,0,1-2.587-2.67v-22.368a2.632,2.632,0,0,1,2.587-2.67h81.361a2.632,2.632,0,0,1,2.587,2.67Zm0,62.082a2.632,2.632,0,0,1-2.587,2.67h-81.361a2.632,2.632,0,0,1-2.587-2.67v-22.368a2.632,2.632,0,0,1,2.587-2.67h81.361a2.632,2.632,0,0,1,2.587,2.67Zm0,62.082a2.632,2.632,0,0,1-2.587,2.67h-81.361a2.632,2.632,0,0,1-2.587-2.67V2735.2a2.633,2.633,0,0,1,2.587-2.67h81.361a2.633,2.633,0,0,1,2.587,2.67Zm-136.751,2.67h-36.64a2.632,2.632,0,0,1-2.587-2.67V2735.2a2.632,2.632,0,0,1,2.587-2.67h81.362a2.633,2.633,0,0,1,2.587,2.67v22.368a2.632,2.632,0,0,1-2.587,2.67h-44.721Zm-89.442,0H3080.3a2.632,2.632,0,0,1-2.587-2.67V2735.2a2.633,2.633,0,0,1,2.587-2.67h81.361a2.633,2.633,0,0,1,2.587,2.67v22.368a2.632,2.632,0,0,1-2.587,2.67h-44.721Zm-89.442,0h-36.64a2.632,2.632,0,0,1-2.587-2.67V2735.2a2.633,2.633,0,0,1,2.587-2.67h81.361a2.633,2.633,0,0,1,2.587,2.67v22.368a2.632,2.632,0,0,1-2.587,2.67H3027.5Zm-89.442,0h-36.64a2.632,2.632,0,0,1-2.587-2.67V2735.2a2.633,2.633,0,0,1,2.587-2.67h81.361a2.633,2.633,0,0,1,2.587,2.67v22.368a2.632,2.632,0,0,1-2.587,2.67h-44.721Zm-89.443,0h-36.64a2.631,2.631,0,0,1-2.587-2.67V2735.2a2.632,2.632,0,0,1,2.587-2.67h81.361a2.633,2.633,0,0,1,2.587,2.67v22.368a2.632,2.632,0,0,1-2.587,2.67h-44.721Zm-89.442,0h-36.64a2.632,2.632,0,0,1-2.587-2.67V2735.2a2.632,2.632,0,0,1,2.587-2.67h81.362a2.633,2.633,0,0,1,2.587,2.67v22.368a2.632,2.632,0,0,1-2.587,2.67h-44.721Zm-89.443,0H2633.09a2.631,2.631,0,0,1-2.586-2.67V2735.2a2.632,2.632,0,0,1,2.586-2.67h81.362a2.633,2.633,0,0,1,2.587,2.67v22.368a2.632,2.632,0,0,1-2.587,2.67H2669.73Zm-89.442,0h-36.641a2.632,2.632,0,0,1-2.587-2.67V2735.2a2.633,2.633,0,0,1,2.587-2.67h81.362a2.633,2.633,0,0,1,2.587,2.67v22.368a2.632,2.632,0,0,1-2.587,2.67h-44.721Zm-89.442,0H2454.2a2.632,2.632,0,0,1-2.587-2.67V2735.2a2.633,2.633,0,0,1,2.587-2.67h81.361a2.632,2.632,0,0,1,2.587,2.67v22.368a2.632,2.632,0,0,1-2.587,2.67h-44.72Zm-89.443,0h-36.641a2.632,2.632,0,0,1-2.587-2.67V2735.2a2.633,2.633,0,0,1,2.587-2.67h81.362a2.632,2.632,0,0,1,2.587,2.67v22.368a2.632,2.632,0,0,1-2.587,2.67H2401.4Zm-89.443,0h-36.64a2.632,2.632,0,0,1-2.587-2.67V2735.2a2.633,2.633,0,0,1,2.587-2.67h81.361a2.633,2.633,0,0,1,2.587,2.67v22.368a2.632,2.632,0,0,1-2.587,2.67H2311.96Zm-89.443,0h-36.64a2.632,2.632,0,0,1-2.587-2.67V2735.2a2.633,2.633,0,0,1,2.587-2.67h81.362a2.632,2.632,0,0,1,2.586,2.67v22.368a2.631,2.631,0,0,1-2.586,2.67h-44.722Zm-89.442,0h-36.64a2.632,2.632,0,0,1-2.587-2.67V2735.2a2.633,2.633,0,0,1,2.587-2.67H2177.8a2.632,2.632,0,0,1,2.586,2.67v22.368a2.632,2.632,0,0,1-2.586,2.67h-44.722Zm-89.443,0h-36.64a2.632,2.632,0,0,1-2.587-2.67V2735.2a2.633,2.633,0,0,1,2.587-2.67h81.361a2.632,2.632,0,0,1,2.587,2.67v22.368a2.632,2.632,0,0,1-2.587,2.67h-44.721Zm-89.442,0h-36.64a2.632,2.632,0,0,1-2.587-2.67V2735.2a2.633,2.633,0,0,1,2.587-2.67h81.361a2.632,2.632,0,0,1,2.587,2.67v22.368a2.632,2.632,0,0,1-2.587,2.67H1954.19Zm-89.443,0h-36.64a2.632,2.632,0,0,1-2.587-2.67V2735.2a2.633,2.633,0,0,1,2.587-2.67h81.361a2.633,2.633,0,0,1,2.587,2.67v22.368a2.632,2.632,0,0,1-2.587,2.67h-44.721Zm-89.443,0h-36.64a2.632,2.632,0,0,1-2.587-2.67V2735.2a2.633,2.633,0,0,1,2.587-2.67h81.361a2.633,2.633,0,0,1,2.587,2.67v22.368a2.632,2.632,0,0,1-2.587,2.67H1775.3Zm-89.443,0h-36.64a2.632,2.632,0,0,1-2.587-2.67V2735.2a2.633,2.633,0,0,1,2.587-2.67h81.361a2.633,2.633,0,0,1,2.587,2.67v22.368a2.632,2.632,0,0,1-2.587,2.67h-44.721Zm-89.442,0h-36.64a2.632,2.632,0,0,1-2.587-2.67V2735.2a2.632,2.632,0,0,1,2.587-2.67h81.361a2.633,2.633,0,0,1,2.587,2.67v22.368a2.632,2.632,0,0,1-2.587,2.67H1596.42Zm-89.443,0h-36.64a2.632,2.632,0,0,1-2.587-2.67V2735.2a2.632,2.632,0,0,1,2.587-2.67H1551.7a2.633,2.633,0,0,1,2.587,2.67v22.368a2.632,2.632,0,0,1-2.587,2.67h-44.721Zm-39.227-64.752v-22.368a2.632,2.632,0,0,1,2.587-2.67H1551.7a2.632,2.632,0,0,1,2.587,2.67v22.368a2.632,2.632,0,0,1-2.587,2.67h-81.361A2.632,2.632,0,0,1,1467.75,2695.485Zm0-62.082v-22.368a2.632,2.632,0,0,1,2.587-2.67H1551.7a2.632,2.632,0,0,1,2.587,2.67V2633.4a2.632,2.632,0,0,1-2.587,2.67h-81.361A2.632,2.632,0,0,1,1467.75,2633.4Zm0-62.082v-22.368a2.632,2.632,0,0,1,2.587-2.67H1551.7a2.632,2.632,0,0,1,2.587,2.67v22.368a2.632,2.632,0,0,1-2.587,2.67h-81.361A2.632,2.632,0,0,1,1467.75,2571.321Zm44.721-53.742a2.632,2.632,0,0,1,2.587-2.67h81.361a2.632,2.632,0,0,1,2.587,2.67v22.369a2.632,2.632,0,0,1-2.587,2.67h-81.361a2.632,2.632,0,0,1-2.587-2.67Zm136.751-2.67h36.64a2.632,2.632,0,0,1,2.587,2.67v22.369a2.632,2.632,0,0,1-2.587,2.67H1604.5a2.632,2.632,0,0,1-2.587-2.67v-22.369a2.632,2.632,0,0,1,2.587-2.67h44.721Zm89.443,0h36.64a2.632,2.632,0,0,1,2.587,2.67v22.369a2.632,2.632,0,0,1-2.587,2.67h-81.361a2.632,2.632,0,0,1-2.587-2.67v-22.369a2.632,2.632,0,0,1,2.587-2.67h44.721Zm89.443,0h36.64a2.632,2.632,0,0,1,2.587,2.67v22.369a2.632,2.632,0,0,1-2.587,2.67h-81.361a2.632,2.632,0,0,1-2.587-2.67v-22.369a2.632,2.632,0,0,1,2.587-2.67h44.721Zm89.442,0h36.64a2.632,2.632,0,0,1,2.587,2.67v22.369a2.632,2.632,0,0,1-2.587,2.67h-81.361a2.632,2.632,0,0,1-2.587-2.67v-22.369a2.632,2.632,0,0,1,2.587-2.67h44.721Zm89.443,0h36.64a2.632,2.632,0,0,1,2.587,2.67v22.369a2.632,2.632,0,0,1-2.587,2.67h-81.361a2.632,2.632,0,0,1-2.587-2.67v-22.369a2.632,2.632,0,0,1,2.587-2.67h44.721Zm89.442,0h36.64a2.632,2.632,0,0,1,2.587,2.67v22.369a2.632,2.632,0,0,1-2.587,2.67h-81.362a2.632,2.632,0,0,1-2.587-2.67v-22.369a2.632,2.632,0,0,1,2.587-2.67h44.721Zm89.443,0h36.64a2.632,2.632,0,0,1,2.587,2.67v22.369a2.632,2.632,0,0,1-2.587,2.67h-81.361a2.632,2.632,0,0,1-2.587-2.67v-22.369a2.632,2.632,0,0,1,2.587-2.67h44.721Zm89.442,0h36.64a2.632,2.632,0,0,1,2.587,2.67v22.369a2.632,2.632,0,0,1-2.587,2.67H2230.6a2.632,2.632,0,0,1-2.587-2.67v-22.369a2.632,2.632,0,0,1,2.587-2.67h44.721Zm89.442,0H2401.4a2.632,2.632,0,0,1,2.586,2.67v22.369a2.631,2.631,0,0,1-2.586,2.67h-81.362a2.632,2.632,0,0,1-2.587-2.67v-22.369a2.632,2.632,0,0,1,2.587-2.67h44.721Zm89.443,0h36.641a2.632,2.632,0,0,1,2.587,2.67v22.369a2.632,2.632,0,0,1-2.587,2.67h-81.362a2.632,2.632,0,0,1-2.587-2.67v-22.369a2.632,2.632,0,0,1,2.587-2.67H2454.2Zm89.442,0h36.641a2.632,2.632,0,0,1,2.587,2.67v22.369a2.632,2.632,0,0,1-2.587,2.67h-81.361a2.632,2.632,0,0,1-2.587-2.67v-22.369a2.632,2.632,0,0,1,2.587-2.67h44.72Zm89.443,0h36.641a2.632,2.632,0,0,1,2.587,2.67v22.369a2.632,2.632,0,0,1-2.587,2.67h-81.361a2.632,2.632,0,0,1-2.587-2.67v-22.369a2.632,2.632,0,0,1,2.587-2.67h44.72Zm89.443,0h36.64a2.631,2.631,0,0,1,2.586,2.67v22.369a2.631,2.631,0,0,1-2.586,2.67h-81.361a2.632,2.632,0,0,1-2.587-2.67v-22.369a2.632,2.632,0,0,1,2.587-2.67h44.721Zm89.443,0h36.64a2.632,2.632,0,0,1,2.587,2.67v22.369a2.632,2.632,0,0,1-2.587,2.67h-81.362a2.632,2.632,0,0,1-2.587-2.67v-22.369a2.632,2.632,0,0,1,2.587-2.67h44.722Zm89.443,0h36.64a2.632,2.632,0,0,1,2.587,2.67v22.369a2.632,2.632,0,0,1-2.587,2.67H2856.7a2.631,2.631,0,0,1-2.586-2.67v-22.369a2.632,2.632,0,0,1,2.586-2.67h44.722Zm89.442,0h36.64a2.632,2.632,0,0,1,2.587,2.67v22.369a2.632,2.632,0,0,1-2.587,2.67h-81.362a2.632,2.632,0,0,1-2.587-2.67v-22.369a2.632,2.632,0,0,1,2.587-2.67h44.721Zm89.443,0h36.64a2.632,2.632,0,0,1,2.587,2.67v22.369a2.632,2.632,0,0,1-2.587,2.67h-81.361a2.631,2.631,0,0,1-2.587-2.67v-22.369a2.631,2.631,0,0,1,2.587-2.67H3080.3Zm89.442,0h36.64a2.632,2.632,0,0,1,2.587,2.67v22.369a2.632,2.632,0,0,1-2.587,2.67h-81.361a2.632,2.632,0,0,1-2.587-2.67v-22.369a2.632,2.632,0,0,1,2.587-2.67h44.721Zm83.949,56.412a2.632,2.632,0,0,1-2.587,2.67h-81.362a2.632,2.632,0,0,1-2.587-2.67v-22.368a2.632,2.632,0,0,1,2.587-2.67h81.362a2.632,2.632,0,0,1,2.587,2.67Zm0,62.082a2.632,2.632,0,0,1-2.587,2.67h-81.362a2.632,2.632,0,0,1-2.587-2.67v-22.368a2.632,2.632,0,0,1,2.587-2.67h81.362a2.632,2.632,0,0,1,2.587,2.67Zm0,62.082a2.632,2.632,0,0,1-2.587,2.67h-81.362a2.632,2.632,0,0,1-2.587-2.67v-22.368a2.632,2.632,0,0,1,2.587-2.67h81.362a2.632,2.632,0,0,1,2.587,2.67Zm-1696.5,0v-22.368a2.632,2.632,0,0,1,2.587-2.67h81.361a2.632,2.632,0,0,1,2.587,2.67v22.368a2.632,2.632,0,0,1-2.587,2.67H1559.78A2.632,2.632,0,0,1,1557.193,2695.485Zm0-62.082v-22.368a2.632,2.632,0,0,1,2.587-2.67h81.361a2.632,2.632,0,0,1,2.587,2.67V2633.4a2.632,2.632,0,0,1-2.587,2.67H1559.78A2.632,2.632,0,0,1,1557.193,2633.4Zm0-62.082v-22.368a2.632,2.632,0,0,1,2.587-2.67h81.361a2.632,2.632,0,0,1,2.587,2.67v22.368a2.632,2.632,0,0,1-2.587,2.67H1559.78A2.632,2.632,0,0,1,1557.193,2571.321Zm1607.058,0a2.632,2.632,0,0,1-2.587,2.67H3080.3a2.632,2.632,0,0,1-2.587-2.67v-22.368a2.632,2.632,0,0,1,2.587-2.67h81.361a2.632,2.632,0,0,1,2.587,2.67Zm0,62.082a2.632,2.632,0,0,1-2.587,2.67H3080.3a2.632,2.632,0,0,1-2.587-2.67v-22.368a2.632,2.632,0,0,1,2.587-2.67h81.361a2.632,2.632,0,0,1,2.587,2.67Zm0,62.082a2.632,2.632,0,0,1-2.587,2.67H3080.3a2.632,2.632,0,0,1-2.587-2.67v-22.368a2.632,2.632,0,0,1,2.587-2.67h81.361a2.632,2.632,0,0,1,2.587,2.67Zm-1517.616,0v-22.368a2.632,2.632,0,0,1,2.587-2.67h81.361a2.632,2.632,0,0,1,2.587,2.67v22.368a2.632,2.632,0,0,1-2.587,2.67h-81.361A2.632,2.632,0,0,1,1646.635,2695.485Zm0-62.082v-22.368a2.632,2.632,0,0,1,2.587-2.67h81.361a2.632,2.632,0,0,1,2.587,2.67V2633.4a2.632,2.632,0,0,1-2.587,2.67h-81.361A2.632,2.632,0,0,1,1646.635,2633.4Zm0-62.082v-22.368a2.632,2.632,0,0,1,2.587-2.67h81.361a2.632,2.632,0,0,1,2.587,2.67v22.368a2.632,2.632,0,0,1-2.587,2.67h-81.361A2.632,2.632,0,0,1,1646.635,2571.321Zm1428.174,0a2.632,2.632,0,0,1-2.587,2.67H2990.86a2.632,2.632,0,0,1-2.587-2.67v-22.368a2.632,2.632,0,0,1,2.587-2.67h81.361a2.632,2.632,0,0,1,2.587,2.67Zm0,62.082a2.632,2.632,0,0,1-2.587,2.67H2990.86a2.632,2.632,0,0,1-2.587-2.67v-22.368a2.632,2.632,0,0,1,2.587-2.67h81.361a2.632,2.632,0,0,1,2.587,2.67Zm0,62.082a2.632,2.632,0,0,1-2.587,2.67H2990.86a2.632,2.632,0,0,1-2.587-2.67v-22.368a2.632,2.632,0,0,1,2.587-2.67h81.361a2.632,2.632,0,0,1,2.587,2.67Zm-44.721,30.708a2.632,2.632,0,0,1-2.587,2.67h-81.362a2.632,2.632,0,0,1-2.587-2.67v-22.368a2.632,2.632,0,0,1,2.587-2.67H3027.5a2.633,2.633,0,0,1,2.587,2.67Zm-89.443,0a2.632,2.632,0,0,1-2.587,2.67H2856.7a2.631,2.631,0,0,1-2.586-2.67v-22.368a2.632,2.632,0,0,1,2.586-2.67h81.362a2.633,2.633,0,0,1,2.587,2.67Zm-89.442,0a2.632,2.632,0,0,1-2.587,2.67h-81.362a2.632,2.632,0,0,1-2.587-2.67v-22.368a2.633,2.633,0,0,1,2.587-2.67h81.362a2.633,2.633,0,0,1,2.587,2.67Zm-89.443,0a2.631,2.631,0,0,1-2.586,2.67h-81.361a2.632,2.632,0,0,1-2.587-2.67v-22.368a2.633,2.633,0,0,1,2.587-2.67h81.361a2.632,2.632,0,0,1,2.586,2.67Zm-89.442,0a2.632,2.632,0,0,1-2.587,2.67h-81.361a2.632,2.632,0,0,1-2.587-2.67v-22.368a2.632,2.632,0,0,1,2.587-2.67h81.361a2.633,2.633,0,0,1,2.587,2.67Zm-89.442,0a2.632,2.632,0,0,1-2.587,2.67h-81.361a2.632,2.632,0,0,1-2.587-2.67v-22.368a2.632,2.632,0,0,1,2.587-2.67h81.361a2.633,2.633,0,0,1,2.587,2.67Zm-89.443,0a2.632,2.632,0,0,1-2.587,2.67h-81.362a2.632,2.632,0,0,1-2.587-2.67v-22.368a2.633,2.633,0,0,1,2.587-2.67h81.362a2.633,2.633,0,0,1,2.587,2.67Zm-89.443,0a2.631,2.631,0,0,1-2.586,2.67h-81.362a2.632,2.632,0,0,1-2.587-2.67v-22.368a2.633,2.633,0,0,1,2.587-2.67H2401.4a2.632,2.632,0,0,1,2.586,2.67Zm-89.443,0a2.632,2.632,0,0,1-2.587,2.67H2230.6a2.632,2.632,0,0,1-2.587-2.67v-22.368a2.633,2.633,0,0,1,2.587-2.67h81.362a2.632,2.632,0,0,1,2.587,2.67Zm-89.443,0a2.632,2.632,0,0,1-2.587,2.67h-81.361a2.632,2.632,0,0,1-2.587-2.67v-22.368a2.633,2.633,0,0,1,2.587-2.67h81.361a2.632,2.632,0,0,1,2.587,2.67Zm-89.442,0a2.632,2.632,0,0,1-2.587,2.67h-81.362a2.632,2.632,0,0,1-2.587-2.67v-22.368a2.633,2.633,0,0,1,2.587-2.67h81.362a2.633,2.633,0,0,1,2.587,2.67Zm-89.443,0a2.632,2.632,0,0,1-2.587,2.67h-81.361a2.632,2.632,0,0,1-2.587-2.67v-22.368a2.633,2.633,0,0,1,2.587-2.67h81.361a2.633,2.633,0,0,1,2.587,2.67Zm-89.442,0a2.632,2.632,0,0,1-2.587,2.67h-81.361a2.632,2.632,0,0,1-2.587-2.67v-22.368a2.633,2.633,0,0,1,2.587-2.67h81.361a2.633,2.633,0,0,1,2.587,2.67Zm-89.443,0a2.632,2.632,0,0,1-2.587,2.67h-81.361a2.632,2.632,0,0,1-2.587-2.67v-22.368a2.633,2.633,0,0,1,2.587-2.67h81.361a2.633,2.633,0,0,1,2.587,2.67Zm-131.257-30.708v-22.368a2.632,2.632,0,0,1,2.587-2.67h81.361a2.632,2.632,0,0,1,2.587,2.67v22.368a2.632,2.632,0,0,1-2.587,2.67h-81.361A2.632,2.632,0,0,1,1736.078,2695.485Zm0-62.082v-22.368a2.632,2.632,0,0,1,2.587-2.67h81.361a2.632,2.632,0,0,1,2.587,2.67V2633.4a2.632,2.632,0,0,1-2.587,2.67h-81.361A2.632,2.632,0,0,1,1736.078,2633.4Zm0-62.082v-22.368a2.632,2.632,0,0,1,2.587-2.67h81.361a2.632,2.632,0,0,1,2.587,2.67v22.368a2.632,2.632,0,0,1-2.587,2.67h-81.361A2.632,2.632,0,0,1,1736.078,2571.321Zm89.443-22.368a2.632,2.632,0,0,1,2.587-2.67h81.361a2.632,2.632,0,0,1,2.587,2.67v22.368a2.632,2.632,0,0,1-2.587,2.67h-81.361a2.632,2.632,0,0,1-2.587-2.67Zm89.442,0a2.632,2.632,0,0,1,2.587-2.67h81.361a2.632,2.632,0,0,1,2.587,2.67v22.368a2.632,2.632,0,0,1-2.587,2.67H1917.55a2.632,2.632,0,0,1-2.587-2.67Zm89.443,0a2.632,2.632,0,0,1,2.587-2.67h81.361a2.632,2.632,0,0,1,2.587,2.67v22.368a2.632,2.632,0,0,1-2.587,2.67h-81.361a2.632,2.632,0,0,1-2.587-2.67Zm89.443,0a2.632,2.632,0,0,1,2.587-2.67H2177.8a2.631,2.631,0,0,1,2.586,2.67v22.368a2.631,2.631,0,0,1-2.586,2.67h-81.362a2.632,2.632,0,0,1-2.587-2.67Zm89.442,0a2.632,2.632,0,0,1,2.587-2.67h81.362a2.631,2.631,0,0,1,2.586,2.67v22.368a2.631,2.631,0,0,1-2.586,2.67h-81.362a2.632,2.632,0,0,1-2.587-2.67Zm89.442,0a2.632,2.632,0,0,1,2.587-2.67h81.361a2.632,2.632,0,0,1,2.587,2.67v22.368a2.632,2.632,0,0,1-2.587,2.67H2275.32a2.632,2.632,0,0,1-2.587-2.67Zm89.443,0a2.632,2.632,0,0,1,2.587-2.67h81.362a2.632,2.632,0,0,1,2.587,2.67v22.368a2.632,2.632,0,0,1-2.587,2.67h-81.362a2.632,2.632,0,0,1-2.587-2.67Zm89.442,0a2.632,2.632,0,0,1,2.587-2.67h81.361a2.632,2.632,0,0,1,2.587,2.67v22.368a2.632,2.632,0,0,1-2.587,2.67H2454.2a2.632,2.632,0,0,1-2.587-2.67Zm89.442,0a2.632,2.632,0,0,1,2.587-2.67h81.362a2.632,2.632,0,0,1,2.587,2.67v22.368a2.632,2.632,0,0,1-2.587,2.67h-81.362a2.632,2.632,0,0,1-2.587-2.67Zm89.444,0a2.631,2.631,0,0,1,2.586-2.67h81.362a2.632,2.632,0,0,1,2.587,2.67v22.368a2.632,2.632,0,0,1-2.587,2.67H2633.09a2.631,2.631,0,0,1-2.586-2.67Zm89.442,0a2.632,2.632,0,0,1,2.587-2.67h81.362a2.632,2.632,0,0,1,2.587,2.67v22.368a2.632,2.632,0,0,1-2.587,2.67h-81.362a2.632,2.632,0,0,1-2.587-2.67Zm89.443,0a2.631,2.631,0,0,1,2.587-2.67h81.361a2.632,2.632,0,0,1,2.587,2.67v22.368a2.632,2.632,0,0,1-2.587,2.67h-81.361a2.631,2.631,0,0,1-2.587-2.67Zm89.442,0a2.632,2.632,0,0,1,2.587-2.67h81.361a2.632,2.632,0,0,1,2.587,2.67v22.368a2.632,2.632,0,0,1-2.587,2.67h-81.361a2.632,2.632,0,0,1-2.587-2.67Zm86.536,84.45a2.632,2.632,0,0,1-2.587,2.67h-81.361a2.632,2.632,0,0,1-2.587-2.67v-22.368a2.632,2.632,0,0,1,2.587-2.67h81.361a2.632,2.632,0,0,1,2.587,2.67Zm0,62.082a2.632,2.632,0,0,1-2.587,2.67h-81.361a2.632,2.632,0,0,1-2.587-2.67v-22.368a2.632,2.632,0,0,1,2.587-2.67h81.361a2.632,2.632,0,0,1,2.587,2.67Zm-136.751,2.67h-36.64a2.631,2.631,0,0,1-2.587-2.67v-22.368a2.631,2.631,0,0,1,2.587-2.67h81.361a2.632,2.632,0,0,1,2.587,2.67v22.368a2.632,2.632,0,0,1-2.587,2.67h-44.721Zm-89.442,0h-36.64a2.632,2.632,0,0,1-2.587-2.67v-22.368a2.632,2.632,0,0,1,2.587-2.67h81.362a2.632,2.632,0,0,1,2.587,2.67v22.368a2.632,2.632,0,0,1-2.587,2.67h-44.721Zm-89.443,0H2633.09a2.631,2.631,0,0,1-2.586-2.67v-22.368a2.631,2.631,0,0,1,2.586-2.67h81.362a2.632,2.632,0,0,1,2.587,2.67v22.368a2.632,2.632,0,0,1-2.587,2.67H2669.73Zm-89.442,0h-36.641a2.632,2.632,0,0,1-2.587-2.67v-22.368a2.632,2.632,0,0,1,2.587-2.67h81.362a2.632,2.632,0,0,1,2.587,2.67v22.368a2.632,2.632,0,0,1-2.587,2.67h-44.721Zm-89.442,0H2454.2a2.632,2.632,0,0,1-2.587-2.67v-22.368a2.632,2.632,0,0,1,2.587-2.67h81.361a2.632,2.632,0,0,1,2.587,2.67v22.368a2.632,2.632,0,0,1-2.587,2.67h-44.72Zm-89.443,0h-36.641a2.632,2.632,0,0,1-2.587-2.67v-22.368a2.632,2.632,0,0,1,2.587-2.67h81.362a2.632,2.632,0,0,1,2.587,2.67v22.368a2.632,2.632,0,0,1-2.587,2.67H2401.4Zm-89.443,0h-36.64a2.632,2.632,0,0,1-2.587-2.67v-22.368a2.632,2.632,0,0,1,2.587-2.67h81.361a2.632,2.632,0,0,1,2.587,2.67v22.368a2.632,2.632,0,0,1-2.587,2.67H2311.96Zm-89.443,0h-36.64a2.632,2.632,0,0,1-2.587-2.67v-22.368a2.632,2.632,0,0,1,2.587-2.67h81.362a2.631,2.631,0,0,1,2.586,2.67v22.368a2.631,2.631,0,0,1-2.586,2.67h-44.722Zm-89.442,0h-36.64a2.632,2.632,0,0,1-2.587-2.67v-22.368a2.632,2.632,0,0,1,2.587-2.67H2177.8a2.631,2.631,0,0,1,2.586,2.67v22.368a2.631,2.631,0,0,1-2.586,2.67h-44.722Zm-89.443,0h-36.64a2.632,2.632,0,0,1-2.587-2.67v-22.368a2.632,2.632,0,0,1,2.587-2.67h81.361a2.632,2.632,0,0,1,2.587,2.67v22.368a2.632,2.632,0,0,1-2.587,2.67h-44.721Zm-89.442,0h-36.64a2.632,2.632,0,0,1-2.587-2.67v-22.368a2.632,2.632,0,0,1,2.587-2.67h81.361a2.632,2.632,0,0,1,2.587,2.67v22.368a2.632,2.632,0,0,1-2.587,2.67H1954.19Zm-89.443,0h-36.64a2.632,2.632,0,0,1-2.587-2.67v-22.368a2.632,2.632,0,0,1,2.587-2.67h81.361a2.632,2.632,0,0,1,2.587,2.67v22.368a2.632,2.632,0,0,1-2.587,2.67h-44.721ZM1825.52,2633.4v-22.368a2.632,2.632,0,0,1,2.587-2.67h81.361a2.632,2.632,0,0,1,2.587,2.67V2633.4a2.632,2.632,0,0,1-2.587,2.67h-81.361A2.632,2.632,0,0,1,1825.52,2633.4Zm44.721-53.742a2.632,2.632,0,0,1,2.587-2.67h81.361a2.632,2.632,0,0,1,2.587,2.67v22.369a2.632,2.632,0,0,1-2.587,2.67h-81.361a2.632,2.632,0,0,1-2.587-2.67Zm136.751-2.67h36.64a2.632,2.632,0,0,1,2.587,2.67v22.369a2.632,2.632,0,0,1-2.587,2.67h-81.361a2.632,2.632,0,0,1-2.587-2.67v-22.369a2.632,2.632,0,0,1,2.587-2.67h44.721Zm89.442,0h36.64a2.632,2.632,0,0,1,2.587,2.67v22.369a2.632,2.632,0,0,1-2.587,2.67h-81.362a2.632,2.632,0,0,1-2.587-2.67v-22.369a2.632,2.632,0,0,1,2.587-2.67h44.721Zm89.443,0h36.64a2.632,2.632,0,0,1,2.587,2.67v22.369a2.632,2.632,0,0,1-2.587,2.67h-81.361a2.632,2.632,0,0,1-2.587-2.67v-22.369a2.632,2.632,0,0,1,2.587-2.67h44.721Zm89.442,0h36.64a2.632,2.632,0,0,1,2.587,2.67v22.369a2.632,2.632,0,0,1-2.587,2.67H2230.6a2.632,2.632,0,0,1-2.587-2.67v-22.369a2.632,2.632,0,0,1,2.587-2.67h44.721Zm89.442,0H2401.4a2.631,2.631,0,0,1,2.586,2.67v22.369a2.631,2.631,0,0,1-2.586,2.67h-81.362a2.632,2.632,0,0,1-2.587-2.67v-22.369a2.632,2.632,0,0,1,2.587-2.67h44.721Zm89.443,0h36.641a2.632,2.632,0,0,1,2.587,2.67v22.369a2.632,2.632,0,0,1-2.587,2.67h-81.362a2.632,2.632,0,0,1-2.587-2.67v-22.369a2.632,2.632,0,0,1,2.587-2.67H2454.2Zm89.442,0h36.641a2.632,2.632,0,0,1,2.587,2.67v22.369a2.632,2.632,0,0,1-2.587,2.67h-81.361a2.632,2.632,0,0,1-2.587-2.67v-22.369a2.632,2.632,0,0,1,2.587-2.67h44.72Zm89.443,0h36.641a2.632,2.632,0,0,1,2.587,2.67v22.369a2.632,2.632,0,0,1-2.587,2.67h-81.361a2.632,2.632,0,0,1-2.587-2.67v-22.369a2.632,2.632,0,0,1,2.587-2.67h44.72Zm89.443,0h36.64a2.631,2.631,0,0,1,2.586,2.67v22.369a2.631,2.631,0,0,1-2.586,2.67h-81.361a2.632,2.632,0,0,1-2.587-2.67v-22.369a2.632,2.632,0,0,1,2.587-2.67h44.721Zm89.443,0h36.64a2.632,2.632,0,0,1,2.587,2.67v22.369a2.632,2.632,0,0,1-2.587,2.67h-81.362a2.632,2.632,0,0,1-2.587-2.67v-22.369a2.632,2.632,0,0,1,2.587-2.67h44.722Zm83.948,56.412a2.632,2.632,0,0,1-2.587,2.67h-81.361a2.631,2.631,0,0,1-2.587-2.67v-22.368a2.631,2.631,0,0,1,2.587-2.67h81.361a2.632,2.632,0,0,1,2.587,2.67Zm-980.961,0v-22.368a2.632,2.632,0,0,1,2.587-2.67h81.361a2.632,2.632,0,0,1,2.587,2.67V2633.4a2.632,2.632,0,0,1-2.587,2.67H1917.55A2.632,2.632,0,0,1,1914.963,2633.4Zm891.519,0a2.632,2.632,0,0,1-2.587,2.67h-81.362a2.632,2.632,0,0,1-2.587-2.67v-22.368a2.632,2.632,0,0,1,2.587-2.67h81.362a2.632,2.632,0,0,1,2.587,2.67Zm-802.076,0v-22.368a2.632,2.632,0,0,1,2.587-2.67h81.361a2.632,2.632,0,0,1,2.587,2.67V2633.4a2.632,2.632,0,0,1-2.587,2.67h-81.361A2.632,2.632,0,0,1,2004.405,2633.4Zm712.634,0a2.632,2.632,0,0,1-2.587,2.67H2633.09a2.631,2.631,0,0,1-2.586-2.67v-22.368a2.631,2.631,0,0,1,2.586-2.67h81.362a2.632,2.632,0,0,1,2.587,2.67Zm-44.721,30.709a2.632,2.632,0,0,1-2.587,2.669h-81.361a2.631,2.631,0,0,1-2.587-2.669v-22.369a2.632,2.632,0,0,1,2.587-2.67h81.361a2.632,2.632,0,0,1,2.587,2.67Zm-89.442,0a2.632,2.632,0,0,1-2.587,2.669h-81.361a2.631,2.631,0,0,1-2.587-2.669v-22.369a2.632,2.632,0,0,1,2.587-2.67h81.361a2.632,2.632,0,0,1,2.587,2.67Zm-89.443,0a2.632,2.632,0,0,1-2.587,2.669h-81.362a2.632,2.632,0,0,1-2.587-2.669v-22.369a2.632,2.632,0,0,1,2.587-2.67h81.362a2.632,2.632,0,0,1,2.587,2.67Zm-89.443,0a2.631,2.631,0,0,1-2.586,2.669h-81.362a2.632,2.632,0,0,1-2.587-2.669v-22.369a2.632,2.632,0,0,1,2.587-2.67H2401.4a2.631,2.631,0,0,1,2.586,2.67Zm-89.443,0a2.631,2.631,0,0,1-2.587,2.669H2230.6a2.632,2.632,0,0,1-2.587-2.669v-22.369a2.632,2.632,0,0,1,2.587-2.67h81.362a2.632,2.632,0,0,1,2.587,2.67Zm-89.443,0a2.631,2.631,0,0,1-2.587,2.669h-81.361a2.632,2.632,0,0,1-2.587-2.669v-22.369a2.632,2.632,0,0,1,2.587-2.67h81.361a2.632,2.632,0,0,1,2.587,2.67ZM2093.848,2633.4v-22.368a2.632,2.632,0,0,1,2.587-2.67H2177.8a2.631,2.631,0,0,1,2.586,2.67V2633.4a2.631,2.631,0,0,1-2.586,2.67h-81.362A2.632,2.632,0,0,1,2093.848,2633.4Zm89.442-22.368a2.632,2.632,0,0,1,2.587-2.67h81.362a2.631,2.631,0,0,1,2.586,2.67V2633.4a2.631,2.631,0,0,1-2.586,2.67h-81.362a2.632,2.632,0,0,1-2.587-2.67Zm89.442,0a2.632,2.632,0,0,1,2.587-2.67h81.361a2.632,2.632,0,0,1,2.587,2.67V2633.4a2.632,2.632,0,0,1-2.587,2.67H2275.32a2.632,2.632,0,0,1-2.587-2.67Zm89.443,0a2.632,2.632,0,0,1,2.587-2.67h81.362a2.632,2.632,0,0,1,2.587,2.67V2633.4a2.632,2.632,0,0,1-2.587,2.67h-81.362a2.632,2.632,0,0,1-2.587-2.67Zm89.442,0a2.632,2.632,0,0,1,2.587-2.67h81.361a2.632,2.632,0,0,1,2.587,2.67V2633.4a2.632,2.632,0,0,1-2.587,2.67H2454.2a2.632,2.632,0,0,1-2.587-2.67Zm89.442,0a2.632,2.632,0,0,1,2.587-2.67h81.362a2.632,2.632,0,0,1,2.587,2.67V2633.4a2.632,2.632,0,0,1-2.587,2.67h-81.362a2.632,2.632,0,0,1-2.587-2.67Zm-491.934,30.708a2.632,2.632,0,0,1,2.587-2.67h81.362a2.632,2.632,0,0,1,2.587,2.67v22.369a2.632,2.632,0,0,1-2.587,2.669h-81.362a2.632,2.632,0,0,1-2.587-2.669Zm712.633,22.369a2.631,2.631,0,0,1-2.586,2.669h-81.361a2.632,2.632,0,0,1-2.587-2.669v-22.369a2.632,2.632,0,0,1,2.587-2.67h81.361a2.631,2.631,0,0,1,2.586,2.67Zm-802.075-22.369a2.632,2.632,0,0,1,2.587-2.67h81.361a2.632,2.632,0,0,1,2.587,2.67v22.369a2.632,2.632,0,0,1-2.587,2.669h-81.361a2.632,2.632,0,0,1-2.587-2.669Zm891.519,22.369a2.632,2.632,0,0,1-2.587,2.669h-81.362a2.632,2.632,0,0,1-2.587-2.669v-22.369a2.632,2.632,0,0,1,2.587-2.67h81.362a2.632,2.632,0,0,1,2.587,2.67Zm-980.961-22.369a2.632,2.632,0,0,1,2.587-2.67h81.361a2.632,2.632,0,0,1,2.587,2.67v22.369a2.632,2.632,0,0,1-2.587,2.669h-81.361a2.632,2.632,0,0,1-2.587-2.669Zm1070.4,22.369a2.632,2.632,0,0,1-2.587,2.669H2856.7a2.631,2.631,0,0,1-2.586-2.669v-22.369a2.631,2.631,0,0,1,2.586-2.67h81.362a2.632,2.632,0,0,1,2.587,2.67Zm0-62.082a2.632,2.632,0,0,1-2.587,2.67H2856.7a2.631,2.631,0,0,1-2.586-2.67v-22.369a2.631,2.631,0,0,1,2.586-2.67h81.362a2.632,2.632,0,0,1,2.587,2.67ZM1780.8,2579.661a2.632,2.632,0,0,1,2.587-2.67h81.361a2.632,2.632,0,0,1,2.587,2.67v22.369a2.632,2.632,0,0,1-2.587,2.67h-81.361a2.632,2.632,0,0,1-2.587-2.67Zm0,62.082a2.632,2.632,0,0,1,2.587-2.67h81.361a2.632,2.632,0,0,1,2.587,2.67v22.369a2.632,2.632,0,0,1-2.587,2.669h-81.361a2.632,2.632,0,0,1-2.587-2.669Zm1249.289,22.369a2.632,2.632,0,0,1-2.587,2.669h-81.362a2.631,2.631,0,0,1-2.587-2.669v-22.369a2.632,2.632,0,0,1,2.587-2.67H3027.5a2.632,2.632,0,0,1,2.587,2.67Zm0-62.082a2.632,2.632,0,0,1-2.587,2.67h-81.362a2.632,2.632,0,0,1-2.587-2.67v-22.369a2.632,2.632,0,0,1,2.587-2.67H3027.5a2.632,2.632,0,0,1,2.587,2.67Zm-1338.731-22.369a2.632,2.632,0,0,1,2.587-2.67H1775.3a2.632,2.632,0,0,1,2.587,2.67v22.369a2.632,2.632,0,0,1-2.587,2.67h-81.361a2.632,2.632,0,0,1-2.587-2.67Zm0,62.082a2.632,2.632,0,0,1,2.587-2.67H1775.3a2.632,2.632,0,0,1,2.587,2.67v22.369a2.632,2.632,0,0,1-2.587,2.669h-81.361a2.632,2.632,0,0,1-2.587-2.669Zm0,62.082a2.633,2.633,0,0,1,2.587-2.67H1775.3a2.633,2.633,0,0,1,2.587,2.67v22.368a2.632,2.632,0,0,1-2.587,2.67h-81.361a2.632,2.632,0,0,1-2.587-2.67Zm1428.174,22.368a2.632,2.632,0,0,1-2.587,2.67h-81.361a2.631,2.631,0,0,1-2.587-2.67v-22.368a2.632,2.632,0,0,1,2.587-2.67h81.361a2.633,2.633,0,0,1,2.587,2.67Zm0-62.081a2.632,2.632,0,0,1-2.587,2.669h-81.361a2.631,2.631,0,0,1-2.587-2.669v-22.369a2.631,2.631,0,0,1,2.587-2.67h81.361a2.632,2.632,0,0,1,2.587,2.67Zm0-62.082a2.632,2.632,0,0,1-2.587,2.67h-81.361a2.631,2.631,0,0,1-2.587-2.67v-22.369a2.631,2.631,0,0,1,2.587-2.67h81.361a2.632,2.632,0,0,1,2.587,2.67Zm-1517.616-22.369a2.632,2.632,0,0,1,2.587-2.67h81.361a2.632,2.632,0,0,1,2.587,2.67v22.369a2.632,2.632,0,0,1-2.587,2.67H1604.5a2.632,2.632,0,0,1-2.587-2.67Zm0,62.082a2.632,2.632,0,0,1,2.587-2.67h81.361a2.632,2.632,0,0,1,2.587,2.67v22.369a2.632,2.632,0,0,1-2.587,2.669H1604.5a2.632,2.632,0,0,1-2.587-2.669Zm0,62.082a2.633,2.633,0,0,1,2.587-2.67h81.361a2.633,2.633,0,0,1,2.587,2.67v22.368a2.632,2.632,0,0,1-2.587,2.67H1604.5a2.632,2.632,0,0,1-2.587-2.67Zm1607.059,22.368a2.632,2.632,0,0,1-2.587,2.67h-81.361a2.632,2.632,0,0,1-2.587-2.67v-22.368a2.633,2.633,0,0,1,2.587-2.67h81.361a2.633,2.633,0,0,1,2.587,2.67Zm0-62.081a2.632,2.632,0,0,1-2.587,2.669h-81.361a2.632,2.632,0,0,1-2.587-2.669v-22.369a2.632,2.632,0,0,1,2.587-2.67h81.361a2.632,2.632,0,0,1,2.587,2.67Zm0-62.082a2.632,2.632,0,0,1-2.587,2.67h-81.361a2.632,2.632,0,0,1-2.587-2.67v-22.369a2.632,2.632,0,0,1,2.587-2.67h81.361a2.632,2.632,0,0,1,2.587,2.67Zm-1696.5-22.369a2.632,2.632,0,0,1,2.587-2.67h81.361a2.632,2.632,0,0,1,2.587,2.67v22.369a2.632,2.632,0,0,1-2.587,2.67h-81.361a2.632,2.632,0,0,1-2.587-2.67Zm0,62.082a2.632,2.632,0,0,1,2.587-2.67h81.361a2.632,2.632,0,0,1,2.587,2.67v22.369a2.632,2.632,0,0,1-2.587,2.669h-81.361a2.632,2.632,0,0,1-2.587-2.669Zm0,62.082a2.633,2.633,0,0,1,2.587-2.67h81.361a2.633,2.633,0,0,1,2.587,2.67v22.368a2.632,2.632,0,0,1-2.587,2.67h-81.361a2.632,2.632,0,0,1-2.587-2.67Zm1785.943,22.368a2.632,2.632,0,0,1-2.587,2.67h-81.361a2.632,2.632,0,0,1-2.587-2.67v-22.368a2.633,2.633,0,0,1,2.587-2.67h81.361a2.633,2.633,0,0,1,2.587,2.67Zm0-62.081a2.632,2.632,0,0,1-2.587,2.669h-81.361a2.632,2.632,0,0,1-2.587-2.669v-22.369a2.632,2.632,0,0,1,2.587-2.67h81.361a2.632,2.632,0,0,1,2.587,2.67Zm0-62.082a2.632,2.632,0,0,1-2.587,2.67h-81.361a2.632,2.632,0,0,1-2.587-2.67v-22.369a2.632,2.632,0,0,1,2.587-2.67h81.361a2.632,2.632,0,0,1,2.587,2.67Zm0-62.082a2.632,2.632,0,0,1-2.587,2.67h-81.361a2.632,2.632,0,0,1-2.587-2.67v-22.369a2.632,2.632,0,0,1,2.587-2.67h81.361a2.632,2.632,0,0,1,2.587,2.67Zm-128.67-55.747h81.362a2.632,2.632,0,0,1,2.587,2.67v22.368a2.632,2.632,0,0,1-2.587,2.67h-81.362a2.632,2.632,0,0,1-2.587-2.67v-22.368A2.632,2.632,0,0,1,3169.745,2484.2Zm-89.442,0h81.361a2.632,2.632,0,0,1,2.587,2.67v22.368a2.632,2.632,0,0,1-2.587,2.67H3080.3a2.632,2.632,0,0,1-2.587-2.67v-22.368A2.632,2.632,0,0,1,3080.3,2484.2Zm-89.443,0h81.361a2.632,2.632,0,0,1,2.587,2.67v22.368a2.632,2.632,0,0,1-2.587,2.67H2990.86a2.632,2.632,0,0,1-2.587-2.67v-22.368A2.632,2.632,0,0,1,2990.86,2484.2Zm-89.442,0h81.361a2.632,2.632,0,0,1,2.587,2.67v22.368a2.632,2.632,0,0,1-2.587,2.67h-81.361a2.632,2.632,0,0,1-2.587-2.67v-22.368A2.632,2.632,0,0,1,2901.418,2484.2Zm-89.443,0h81.361a2.632,2.632,0,0,1,2.587,2.67v22.368a2.632,2.632,0,0,1-2.587,2.67h-81.361a2.631,2.631,0,0,1-2.587-2.67v-22.368A2.631,2.631,0,0,1,2811.975,2484.2Zm-89.443,0h81.362a2.632,2.632,0,0,1,2.587,2.67v22.368a2.632,2.632,0,0,1-2.587,2.67h-81.362a2.632,2.632,0,0,1-2.587-2.67v-22.368A2.632,2.632,0,0,1,2722.533,2484.2Zm-89.443,0h81.362a2.632,2.632,0,0,1,2.587,2.67v22.368a2.632,2.632,0,0,1-2.587,2.67H2633.09a2.631,2.631,0,0,1-2.586-2.67v-22.368A2.631,2.631,0,0,1,2633.09,2484.2Zm-89.443,0h81.362a2.632,2.632,0,0,1,2.587,2.67v22.368a2.632,2.632,0,0,1-2.587,2.67h-81.362a2.632,2.632,0,0,1-2.587-2.67v-22.368A2.632,2.632,0,0,1,2543.647,2484.2Zm-89.442,0h81.361a2.632,2.632,0,0,1,2.587,2.67v22.368a2.632,2.632,0,0,1-2.587,2.67H2454.2a2.632,2.632,0,0,1-2.587-2.67v-22.368A2.632,2.632,0,0,1,2454.2,2484.2Zm-89.443,0h81.362a2.632,2.632,0,0,1,2.587,2.67v22.368a2.632,2.632,0,0,1-2.587,2.67h-81.362a2.632,2.632,0,0,1-2.587-2.67v-22.368A2.632,2.632,0,0,1,2364.762,2484.2Zm-89.442,0h81.361a2.632,2.632,0,0,1,2.587,2.67v22.368a2.632,2.632,0,0,1-2.587,2.67H2275.32a2.632,2.632,0,0,1-2.587-2.67v-22.368A2.632,2.632,0,0,1,2275.32,2484.2Zm-89.442,0h81.362a2.631,2.631,0,0,1,2.586,2.67v22.368a2.631,2.631,0,0,1-2.586,2.67h-81.362a2.632,2.632,0,0,1-2.587-2.67v-22.368A2.632,2.632,0,0,1,2185.877,2484.2Zm-89.443,0H2177.8a2.632,2.632,0,0,1,2.586,2.67v22.368a2.631,2.631,0,0,1-2.586,2.67h-81.362a2.632,2.632,0,0,1-2.587-2.67v-22.368A2.632,2.632,0,0,1,2096.435,2484.2Zm-89.442,0h81.361a2.632,2.632,0,0,1,2.587,2.67v22.368a2.632,2.632,0,0,1-2.587,2.67h-81.361a2.632,2.632,0,0,1-2.587-2.67v-22.368A2.632,2.632,0,0,1,2006.992,2484.2Zm-89.443,0h81.361a2.632,2.632,0,0,1,2.587,2.67v22.368a2.632,2.632,0,0,1-2.587,2.67H1917.55a2.632,2.632,0,0,1-2.587-2.67v-22.368A2.632,2.632,0,0,1,1917.55,2484.2Zm-89.442,0h81.361a2.632,2.632,0,0,1,2.587,2.67v22.368a2.632,2.632,0,0,1-2.587,2.67h-81.361a2.632,2.632,0,0,1-2.587-2.67v-22.368A2.632,2.632,0,0,1,1828.107,2484.2Zm-89.443,0h81.361a2.632,2.632,0,0,1,2.587,2.67v22.368a2.632,2.632,0,0,1-2.587,2.67h-81.361a2.632,2.632,0,0,1-2.587-2.67v-22.368A2.632,2.632,0,0,1,1738.665,2484.2Zm-89.443,0h81.361a2.632,2.632,0,0,1,2.587,2.67v22.368a2.632,2.632,0,0,1-2.587,2.67h-81.361a2.632,2.632,0,0,1-2.587-2.67v-22.368A2.632,2.632,0,0,1,1649.222,2484.2Zm-89.442,0h81.361a2.632,2.632,0,0,1,2.587,2.67v22.368a2.632,2.632,0,0,1-2.587,2.67H1559.78a2.632,2.632,0,0,1-2.587-2.67v-22.368A2.632,2.632,0,0,1,1559.78,2484.2Zm-89.443,0H1551.7a2.632,2.632,0,0,1,2.587,2.67v22.368a2.632,2.632,0,0,1-2.587,2.67h-81.361a2.632,2.632,0,0,1-2.587-2.67v-22.368A2.632,2.632,0,0,1,1470.337,2484.2Zm-92.03,25.038v-22.368a2.631,2.631,0,0,1,2.586-2.67h81.362a2.632,2.632,0,0,1,2.587,2.67v22.368a2.632,2.632,0,0,1-2.587,2.67h-81.362A2.631,2.631,0,0,1,1378.308,2509.239Zm83.948,5.67h44.721a2.632,2.632,0,0,1,2.587,2.67v22.369a2.632,2.632,0,0,1-2.587,2.67h-81.361a2.632,2.632,0,0,1-2.587-2.67v-22.369a2.632,2.632,0,0,1,2.587-2.67Zm-83.948,56.412v-22.368a2.631,2.631,0,0,1,2.586-2.67h81.362a2.632,2.632,0,0,1,2.587,2.67v22.368a2.632,2.632,0,0,1-2.587,2.67h-81.362A2.631,2.631,0,0,1,1378.308,2571.321Zm83.948,5.67h44.721a2.632,2.632,0,0,1,2.587,2.67v22.369a2.632,2.632,0,0,1-2.587,2.67h-81.361a2.632,2.632,0,0,1-2.587-2.67v-22.369a2.632,2.632,0,0,1,2.587-2.67Zm-83.948,56.412v-22.368a2.631,2.631,0,0,1,2.586-2.67h81.362a2.632,2.632,0,0,1,2.587,2.67V2633.4a2.632,2.632,0,0,1-2.587,2.67h-81.362A2.631,2.631,0,0,1,1378.308,2633.4Zm83.948,5.67h44.721a2.632,2.632,0,0,1,2.587,2.67v22.369a2.632,2.632,0,0,1-2.587,2.669h-81.361a2.632,2.632,0,0,1-2.587-2.669v-22.369a2.632,2.632,0,0,1,2.587-2.67Zm-83.948,56.412v-22.368a2.631,2.631,0,0,1,2.586-2.67h81.362a2.632,2.632,0,0,1,2.587,2.67v22.368a2.632,2.632,0,0,1-2.587,2.67h-81.362A2.631,2.631,0,0,1,1378.308,2695.485Zm83.948,5.67h44.721a2.633,2.633,0,0,1,2.587,2.67v22.368a2.632,2.632,0,0,1-2.587,2.67h-81.361a2.632,2.632,0,0,1-2.587-2.67v-22.368a2.633,2.633,0,0,1,2.587-2.67Zm-83.948,56.412V2735.2a2.632,2.632,0,0,1,2.586-2.67h81.362a2.633,2.633,0,0,1,2.587,2.67v22.368a2.632,2.632,0,0,1-2.587,2.67h-81.362A2.631,2.631,0,0,1,1378.308,2757.567Zm128.67,33.378h-81.361a2.632,2.632,0,0,1-2.587-2.67v-22.368a2.633,2.633,0,0,1,2.587-2.67h81.361a2.633,2.633,0,0,1,2.587,2.67v22.368A2.632,2.632,0,0,1,1506.978,2790.945Zm89.443,0h-81.361a2.632,2.632,0,0,1-2.587-2.67v-22.368a2.633,2.633,0,0,1,2.587-2.67h81.361a2.633,2.633,0,0,1,2.587,2.67v22.368A2.632,2.632,0,0,1,1596.42,2790.945Zm89.442,0H1604.5a2.632,2.632,0,0,1-2.587-2.67v-22.368a2.633,2.633,0,0,1,2.587-2.67h81.361a2.633,2.633,0,0,1,2.587,2.67v22.368A2.632,2.632,0,0,1,1685.862,2790.945Zm89.443,0h-81.361a2.632,2.632,0,0,1-2.587-2.67v-22.368a2.633,2.633,0,0,1,2.587-2.67H1775.3a2.633,2.633,0,0,1,2.587,2.67v22.368A2.632,2.632,0,0,1,1775.3,2790.945Zm89.443,0h-81.361a2.632,2.632,0,0,1-2.587-2.67v-22.368a2.633,2.633,0,0,1,2.587-2.67h81.361a2.633,2.633,0,0,1,2.587,2.67v22.368A2.632,2.632,0,0,1,1864.747,2790.945Zm89.443,0h-81.361a2.632,2.632,0,0,1-2.587-2.67v-22.368a2.633,2.633,0,0,1,2.587-2.67h81.361a2.633,2.633,0,0,1,2.587,2.67v22.368A2.632,2.632,0,0,1,1954.19,2790.945Zm89.442,0h-81.361a2.632,2.632,0,0,1-2.587-2.67v-22.368a2.633,2.633,0,0,1,2.587-2.67h81.361a2.633,2.633,0,0,1,2.587,2.67v22.368A2.632,2.632,0,0,1,2043.632,2790.945Zm89.443,0h-81.362a2.632,2.632,0,0,1-2.587-2.67v-22.368a2.633,2.633,0,0,1,2.587-2.67h81.362a2.633,2.633,0,0,1,2.587,2.67v22.368A2.632,2.632,0,0,1,2133.075,2790.945Zm89.442,0h-81.361a2.632,2.632,0,0,1-2.587-2.67v-22.368a2.633,2.633,0,0,1,2.587-2.67h81.361a2.632,2.632,0,0,1,2.587,2.67v22.368A2.632,2.632,0,0,1,2222.517,2790.945Zm89.443,0H2230.6a2.632,2.632,0,0,1-2.587-2.67v-22.368a2.633,2.633,0,0,1,2.587-2.67h81.362a2.632,2.632,0,0,1,2.587,2.67v22.368A2.632,2.632,0,0,1,2311.96,2790.945Zm89.443,0h-81.362a2.632,2.632,0,0,1-2.587-2.67v-22.368a2.633,2.633,0,0,1,2.587-2.67H2401.4a2.632,2.632,0,0,1,2.586,2.67v22.368A2.632,2.632,0,0,1,2401.4,2790.945Zm89.443,0h-81.362a2.632,2.632,0,0,1-2.587-2.67v-22.368a2.633,2.633,0,0,1,2.587-2.67h81.362a2.633,2.633,0,0,1,2.587,2.67v22.368A2.632,2.632,0,0,1,2490.846,2790.945Zm89.442,0h-81.361a2.632,2.632,0,0,1-2.587-2.67v-22.368a2.632,2.632,0,0,1,2.587-2.67h81.361a2.633,2.633,0,0,1,2.587,2.67v22.368A2.632,2.632,0,0,1,2580.288,2790.945Zm89.442,0h-81.361a2.632,2.632,0,0,1-2.587-2.67v-22.368a2.632,2.632,0,0,1,2.587-2.67h81.361a2.633,2.633,0,0,1,2.587,2.67v22.368A2.632,2.632,0,0,1,2669.73,2790.945Zm89.443,0h-81.361a2.632,2.632,0,0,1-2.587-2.67v-22.368a2.633,2.633,0,0,1,2.587-2.67h81.361a2.632,2.632,0,0,1,2.586,2.67v22.368A2.631,2.631,0,0,1,2759.173,2790.945Zm89.442,0h-81.362a2.632,2.632,0,0,1-2.587-2.67v-22.368a2.633,2.633,0,0,1,2.587-2.67h81.362a2.633,2.633,0,0,1,2.587,2.67v22.368A2.632,2.632,0,0,1,2848.615,2790.945Zm89.443,0H2856.7a2.632,2.632,0,0,1-2.586-2.67v-22.368a2.632,2.632,0,0,1,2.586-2.67h81.362a2.633,2.633,0,0,1,2.587,2.67v22.368A2.632,2.632,0,0,1,2938.058,2790.945Zm89.442,0h-81.362a2.632,2.632,0,0,1-2.587-2.67v-22.368a2.632,2.632,0,0,1,2.587-2.67H3027.5a2.633,2.633,0,0,1,2.587,2.67v22.368A2.632,2.632,0,0,1,3027.5,2790.945Zm89.442,0h-81.361a2.631,2.631,0,0,1-2.587-2.67v-22.368a2.632,2.632,0,0,1,2.587-2.67h81.361a2.633,2.633,0,0,1,2.587,2.67v22.368A2.632,2.632,0,0,1,3116.943,2790.945Zm89.442,0h-81.361a2.632,2.632,0,0,1-2.587-2.67v-22.368a2.633,2.633,0,0,1,2.587-2.67h81.361a2.633,2.633,0,0,1,2.587,2.67v22.368A2.632,2.632,0,0,1,3206.385,2790.945Zm89.443,0h-81.361a2.632,2.632,0,0,1-2.587-2.67v-22.368a2.633,2.633,0,0,1,2.587-2.67h81.361a2.633,2.633,0,0,1,2.587,2.67v22.368A2.632,2.632,0,0,1,3295.828,2790.945Zm92.03-25.038v22.368a2.632,2.632,0,0,1-2.587,2.67h-81.362a2.632,2.632,0,0,1-2.587-2.67v-22.368a2.633,2.633,0,0,1,2.587-2.67h81.362A2.633,2.633,0,0,1,3387.857,2765.907Zm44.721-30.708v22.368a2.632,2.632,0,0,1-2.587,2.67H3348.63a2.632,2.632,0,0,1-2.587-2.67V2735.2a2.633,2.633,0,0,1,2.587-2.67h81.361A2.633,2.633,0,0,1,3432.579,2735.2Zm-44.721-31.374v22.368a2.632,2.632,0,0,1-2.587,2.67h-81.362a2.632,2.632,0,0,1-2.587-2.67v-22.368a2.633,2.633,0,0,1,2.587-2.67h81.362A2.633,2.633,0,0,1,3387.857,2703.825Zm44.721-30.708v22.368a2.632,2.632,0,0,1-2.587,2.67H3348.63a2.632,2.632,0,0,1-2.587-2.67v-22.368a2.632,2.632,0,0,1,2.587-2.67h81.361A2.632,2.632,0,0,1,3432.579,2673.117Zm-44.721-31.374v22.369a2.632,2.632,0,0,1-2.587,2.669h-81.362a2.632,2.632,0,0,1-2.587-2.669v-22.369a2.632,2.632,0,0,1,2.587-2.67h81.362A2.632,2.632,0,0,1,3387.857,2641.743Zm44.721-30.708V2633.4a2.632,2.632,0,0,1-2.587,2.67H3348.63a2.632,2.632,0,0,1-2.587-2.67v-22.368a2.632,2.632,0,0,1,2.587-2.67h81.361A2.632,2.632,0,0,1,3432.579,2611.035Zm-44.721-31.374v22.369a2.632,2.632,0,0,1-2.587,2.67h-81.362a2.632,2.632,0,0,1-2.587-2.67v-22.369a2.632,2.632,0,0,1,2.587-2.67h81.362A2.632,2.632,0,0,1,3387.857,2579.661Zm44.721-30.708v22.368a2.632,2.632,0,0,1-2.587,2.67H3348.63a2.632,2.632,0,0,1-2.587-2.67v-22.368a2.632,2.632,0,0,1,2.587-2.67h81.361A2.632,2.632,0,0,1,3432.579,2548.953Zm-44.721-31.374v22.369a2.632,2.632,0,0,1-2.587,2.67h-81.362a2.632,2.632,0,0,1-2.587-2.67v-22.369a2.632,2.632,0,0,1,2.587-2.67h81.362A2.632,2.632,0,0,1,3387.857,2517.579Z" fill="#fff"/>
      <path id="Rectangle_2786" data-name="Rectangle 2786" d="M17.086,0H333.914A17.086,17.086,0,0,1,351,17.086V720a0,0,0,0,1,0,0H0a0,0,0,0,1,0,0V17.086A17.086,17.086,0,0,1,17.086,0Z" transform="translate(2537.08 2073.77)" fill="#d0d0d0"/>
      <g transform="matrix(1, 0, 0, 1, 1375.4, 1777.18)" filter="url(#Path_1454)">
        <path id="Path_1454-2" data-name="Path 1454" d="M2941.076,2804.27h-372V2090.856a27.617,27.617,0,0,1,27.587-27.586H2913.49a27.617,27.617,0,0,1,27.586,27.586Zm-351-21h330V2090.856a6.593,6.593,0,0,0-6.586-6.586H2596.663a6.594,6.594,0,0,0-6.587,6.586Z" transform="translate(-1418.01 -1777.18)" fill="#fff"/>
      </g>
      <g transform="matrix(1, 0, 0, 1, 1375.4, 1777.18)" filter="url(#Path_1455)">
        <path id="Path_1455-2" data-name="Path 1455" d="M2591.955,2793.77l131.622-64.906V2118.77l-131.622-27.914Z" transform="translate(-1416.73 -1782.18)" fill="#f2f2f2"/>
      </g>
      <g id="Group_1921" data-name="Group 1921" transform="translate(1401.391 2454.681)">
        <path id="Path_1456" data-name="Path 1456" d="M1700.448,2730.479V2460.657h-20.717v269.822h-50.965v17.375h122.646v-17.375Z" transform="translate(-1510.921 -2382.209)" fill="#fff"/>
        <g transform="matrix(1, 0, 0, 1, -25.99, -677.5)" filter="url(#Path_1457)">
          <path id="Path_1457-2" data-name="Path 1457" d="M1785.8,2452.934H1570.146a29.64,29.64,0,0,1,29.64-29.639H1756.16a29.639,29.639,0,0,1,29.64,29.639Z" transform="translate(-1472.81 -1696.99)" fill="#fff"/>
        </g>
        <g transform="matrix(1, 0, 0, 1, -25.99, -677.5)" filter="url(#Path_1458)">
          <path id="Path_1458-2" data-name="Path 1458" d="M1881.407,2363.828a13.908,13.908,0,0,0-17.35,9.3l-26.389,87.31a12.723,12.723,0,0,1-12.249,9.092h-62.228a13.919,13.919,0,0,0,0,27.837h3.245l-9.2,230.214,6.921.277,4.073-101.913h81.185l3.976,101.9,6.922-.271-9.332-239.18a40.579,40.579,0,0,0,13.332-19.9l26.39-87.31A13.917,13.917,0,0,0,1881.407,2363.828Zm-32.263,255.187h-80.637l4.856-121.513-3.45-.138h55.505a40.733,40.733,0,0,0,18.8-4.554Z" transform="translate(-1509.84 -1684.57)" fill="#fff"/>
        </g>
        <g transform="matrix(1, 0, 0, 1, -25.99, -677.5)" filter="url(#Path_1459)">
          <path id="Path_1459-2" data-name="Path 1459" d="M1480.816,2379.721l26.389,87.31a40.586,40.586,0,0,0,13.333,19.9l-9.332,239.18,6.922.271,3.975-101.9h81.184l4.074,101.913,6.922-.277-9.2-230.214h3.245a13.918,13.918,0,1,0,0-27.837H1546.1a12.724,12.724,0,0,1-12.249-9.092l-26.389-87.31a13.918,13.918,0,1,0-26.646,8.053Zm46.482,111.632a40.729,40.729,0,0,0,18.8,4.554h55.506l-3.451.138,4.856,121.513h-80.637Z" transform="translate(-1454.23 -1684.27)" fill="#fff"/>
        </g>
      </g>
      <g id="Group_1922" data-name="Group 1922" transform="translate(2022.208 2454.681)">
        <g transform="matrix(1, 0, 0, 1, -646.81, -677.5)" filter="url(#Path_1460)">
          <path id="Path_1460-3" data-name="Path 1460" d="M2279.717,2730.479V2460.657H2259v269.822h-50.965v17.375h122.646v-17.375Z" transform="translate(-1443.38 -1704.71)" fill="#fff"/>
        </g>
        <g transform="matrix(1, 0, 0, 1, -646.81, -677.5)" filter="url(#Path_1461)">
          <path id="Path_1461-3" data-name="Path 1461" d="M2365.069,2452.934H2149.416a29.639,29.639,0,0,1,29.64-29.639h156.374a29.639,29.639,0,0,1,29.64,29.639Z" transform="translate(-1431.27 -1696.99)" fill="#fff"/>
        </g>
        <g transform="matrix(1, 0, 0, 1, -646.81, -677.5)" filter="url(#Path_1462)">
          <path id="Path_1462-3" data-name="Path 1462" d="M2460.677,2363.828a13.908,13.908,0,0,0-17.35,9.3l-26.389,87.31a12.722,12.722,0,0,1-12.249,9.092H2342.46a13.919,13.919,0,0,0,0,27.837h3.245l-9.2,230.214,6.921.277,4.074-101.913h81.184l3.975,101.9,6.922-.271-9.332-239.18a40.586,40.586,0,0,0,13.333-19.9l26.389-87.31A13.917,13.917,0,0,0,2460.677,2363.828Zm-32.263,255.187h-80.637l4.856-121.513-3.451-.138h55.506a40.732,40.732,0,0,0,18.8-4.554Z" transform="translate(-1468.29 -1684.57)" fill="#fff"/>
        </g>
        <g transform="matrix(1, 0, 0, 1, -646.81, -677.5)" filter="url(#Path_1463)">
          <path id="Path_1463-3" data-name="Path 1463" d="M2060.085,2379.721l26.39,87.31a40.58,40.58,0,0,0,13.332,19.9l-9.332,239.18,6.922.271,3.976-101.9h81.185l4.073,101.913,6.921-.277-9.2-230.214h3.246a13.918,13.918,0,0,0,0-27.837h-62.228a12.724,12.724,0,0,1-12.249-9.092l-26.389-87.31a13.918,13.918,0,1,0-26.646,8.053Zm46.482,111.632a40.73,40.73,0,0,0,18.8,4.554h55.505l-3.45.138,4.856,121.513h-80.638Z" transform="translate(-1412.68 -1684.27)" fill="#fff"/>
        </g>
      </g>
      <g id="Group_1945" data-name="Group 1945" transform="translate(3067.665 2454.681)">
        <g transform="matrix(1, 0, 0, 1, -1692.26, -677.5)" filter="url(#Path_1460-2)">
          <path id="Path_1460-4" data-name="Path 1460" d="M2279.717,2730.479V2460.657H2259v269.822h-50.965v17.375h122.646v-17.375Z" transform="translate(-397.93 -1704.71)" fill="#fff"/>
        </g>
        <g transform="matrix(1, 0, 0, 1, -1692.26, -677.5)" filter="url(#Path_1461-2)">
          <path id="Path_1461-4" data-name="Path 1461" d="M2365.069,2452.934H2149.416a29.639,29.639,0,0,1,29.64-29.639h156.374a29.639,29.639,0,0,1,29.64,29.639Z" transform="translate(-385.81 -1696.99)" fill="#fff"/>
        </g>
        <g transform="matrix(1, 0, 0, 1, -1692.26, -677.5)" filter="url(#Path_1462-2)">
          <path id="Path_1462-4" data-name="Path 1462" d="M2460.677,2363.828a13.908,13.908,0,0,0-17.35,9.3l-26.389,87.31a12.722,12.722,0,0,1-12.249,9.092H2342.46a13.919,13.919,0,0,0,0,27.837h3.245l-9.2,230.214,6.921.277,4.074-101.913h81.184l3.975,101.9,6.922-.271-9.332-239.18a40.586,40.586,0,0,0,13.333-19.9l26.389-87.31A13.917,13.917,0,0,0,2460.677,2363.828Zm-32.263,255.187h-80.637l4.856-121.513-3.451-.138h55.506a40.732,40.732,0,0,0,18.8-4.554Z" transform="translate(-422.83 -1684.57)" fill="#fff"/>
        </g>
        <g transform="matrix(1, 0, 0, 1, -1692.26, -677.5)" filter="url(#Path_1463-2)">
          <path id="Path_1463-4" data-name="Path 1463" d="M2060.085,2379.721l26.39,87.31a40.58,40.58,0,0,0,13.332,19.9l-9.332,239.18,6.922.271,3.976-101.9h81.185l4.073,101.913,6.921-.277-9.2-230.214h3.246a13.918,13.918,0,0,0,0-27.837h-62.228a12.724,12.724,0,0,1-12.249-9.092l-26.389-87.31a13.918,13.918,0,1,0-26.646,8.053Zm46.482,111.632a40.73,40.73,0,0,0,18.8,4.554h55.505l-3.45.138,4.856,121.513h-80.638Z" transform="translate(-367.22 -1684.27)" fill="#fff"/>
        </g>
      </g>
      <g data-type="innerShadowGroup">
        <rect id="Rectangle_2787-2" data-name="Rectangle 2787" width="414" height="90" rx="31.5" transform="translate(2500.913 1947.77)" fill="#fff"/>
        <g transform="matrix(1, 0, 0, 1, 1375.4, 1777.18)" filter="url(#Rectangle_2787)">
          <rect id="Rectangle_2787-3" data-name="Rectangle 2787" width="414" height="90" rx="31.5" transform="translate(1125.51 170.59)" fill="#fff"/>
        </g>
      </g>
      <path id="Path_1464" data-name="Path 1464" d="M3335.576,2100.77l-108,288h45l108-288" transform="translate(-66)" fill="#fff"/>
      <path id="Path_1465" data-name="Path 1465" d="M3272.576,2100.77l-108,288h45l108-288" transform="translate(-66)" fill="#fff"/>
      <path id="Path_1466" data-name="Path 1466" d="M3398.576,2100.77l-108,288h198l108-288" transform="translate(-66)" fill="#fff"/>
    </g>
  </g>
</svg>
