<svg id="Group_192" data-name="Group 192" xmlns="http://www.w3.org/2000/svg" width="198" height="53.395" viewBox="0 0 198 53.395">
  <g id="Group_189" data-name="Group 189" transform="translate(72.189)">
    <g id="Group_186" data-name="Group 186" transform="translate(115.316)">
      <circle id="Ellipse_119" data-name="Ellipse 119" cx="5.248" cy="5.248" r="5.248" fill="#fff"/>
    </g>
    <path id="Path_439" data-name="Path 439" d="M236.73,10089.991h-8.752a.68.68,0,0,0-.654.5l-4.875,16.593a.118.118,0,0,1-.111.08.115.115,0,0,1-.11-.076l-5.217-16.55a.678.678,0,0,0-.651-.485h-4.667a.681.681,0,0,0-.649.479l-5.442,16.554a.118.118,0,0,1-.112.081.119.119,0,0,1-.108-.074l-4.877-16.6a.68.68,0,0,0-.655-.5h-8.982a.679.679,0,0,0-.635.919l10.314,27.3a.681.681,0,0,0,.636.439h8.591a.68.68,0,0,0,.646-.468l3.346-10.2a.121.121,0,0,1,.118-.085.131.131,0,0,1,.122.089l3.288,10.193a.681.681,0,0,0,.647.471h8.53a.679.679,0,0,0,.636-.44l10.259-27.3A.679.679,0,0,0,236.73,10089.991Zm54.536,28.29-4.982-9.759a.678.678,0,0,0-1.105-.15l-2.925,3.2a.677.677,0,0,0-.178.458v5.946a.68.68,0,0,1-.68.68h-8.889a.68.68,0,0,1-.679-.68v-39.112a.68.68,0,0,1,.679-.681H281.4a.681.681,0,0,1,.68.681v19.543a.49.49,0,0,0,.869.31l6.917-8.471a.679.679,0,0,1,.526-.25h10.337a.679.679,0,0,1,.5,1.142l-8.444,9.09a.678.678,0,0,0-.094.8l9.375,16.619a.68.68,0,0,1-.592,1.014h-9.6A.681.681,0,0,1,291.266,10118.281Zm14.449-.31v-27.3a.679.679,0,0,1,.679-.679h8.716a.68.68,0,0,1,.68.679v27.3a.68.68,0,0,1-.68.68h-8.716A.68.68,0,0,1,305.715,10117.972Zm-52.223-29.083a15.344,15.344,0,1,0,14.524,14.523A15.345,15.345,0,0,0,253.492,10088.889Zm-.048,21.05a5.775,5.775,0,1,1,4.976-4.977A5.778,5.778,0,0,1,253.444,10109.938Z" transform="translate(-190.188 -10077.366)" fill="#fff"/>
    <g id="Group_187" data-name="Group 187" transform="translate(50.873)">
      <path id="Path_440" data-name="Path 440" d="M261.512,10085.862a.68.68,0,0,1-.911.252,16.967,16.967,0,0,0-15.814,0,.68.68,0,0,1-.911-.252l-2.722-4.706a.683.683,0,0,1,.258-.94,23.758,23.758,0,0,1,22.564,0,.683.683,0,0,1,.258.94Z" transform="translate(-241.062 -10077.366)" fill="#fff"/>
    </g>
    <g id="Group_188" data-name="Group 188" transform="translate(50.873 44.565)">
      <path id="Path_441" data-name="Path 441" d="M252.694,10130.761a23.775,23.775,0,0,1-11.282-2.849.682.682,0,0,1-.258-.94l2.722-4.706a.68.68,0,0,1,.911-.252,16.967,16.967,0,0,0,15.814,0,.68.68,0,0,1,.911.252l2.722,4.706a.683.683,0,0,1-.258.94A23.775,23.775,0,0,1,252.694,10130.761Z" transform="translate(-241.062 -10121.932)" fill="#fff"/>
    </g>
  </g>
  <g id="Group_191" data-name="Group 191" transform="translate(0 0.001)">
    <g id="Group_190" data-name="Group 190">
      <path id="Path_442" data-name="Path 442" d="M174.236,10095.451c-.667-2.082-1.819-3.325-3.242-3.5-.041,0-.081,0-.121,0-.127-5.876-.578-12.08-3.576-13.609a9.468,9.468,0,0,0-7.794-.071l-13.082,1.36-13.083-1.36a9.467,9.467,0,0,0-7.794.071c-3,1.529-3.449,7.733-3.575,13.609-.041,0-.08,0-.121,0-1.423.175-2.574,1.418-3.242,3.5a16.238,16.238,0,0,0-.457,6.725h0c.588,4.787,2.648,8.341,5.011,8.946.329,2.538.7,4.883,1.077,6.629,1.317,6.057,5.028,13.01,22.185,13.01,9.01,0,19.674-1.479,22.182-13.01.379-1.747.747-4.091,1.076-6.629,2.364-.6,4.425-4.158,5.013-8.946h0A16.238,16.238,0,0,0,174.236,10095.451Zm-54.442,6.522h0a14.562,14.562,0,0,1,.392-6.017c.421-1.314,1.067-2.165,1.748-2.33-.01.407-.022.762-.041,1.029a119.676,119.676,0,0,0,1.028,14.525C121.62,10108.224,120.229,10105.511,119.794,10101.974Zm47.189,15.425c-.761,3.5-2.545,11.7-20.563,11.7s-19.8-8.2-20.562-11.7c-1.409-6.479-2.5-19.93-2.312-22.624.038-.526.051-1.26.068-2.188.068-3.735.21-11.508,2.683-12.769a6.656,6.656,0,0,1,3.052-.705,8.671,8.671,0,0,1,3.4.711l.132.064,13.537,1.408,13.536-1.408.133-.064a7.88,7.88,0,0,1,6.454-.006c2.473,1.261,2.615,9.033,2.683,12.769.017.929.03,1.662.068,2.188C169.486,10097.467,168.392,10110.917,166.983,10117.4Zm6.065-15.425c-.45,3.659-1.822,6.325-3.132,7.238a120.255,120.255,0,0,0,1.033-14.556c-.019-.268-.032-.622-.042-1.029.681.164,1.328,1.015,1.749,2.33A14.56,14.56,0,0,1,173.048,10101.974Z" transform="translate(-118 -10077.367)" fill="#fff"/>
      <path id="Path_443" data-name="Path 443" d="M166.37,10088.463c-.168-1.794-.056-8.686-5.772-9.919a85.987,85.987,0,0,0-28.354,0c-5.716,1.233-5.6,8.125-5.772,9.919s-.336,22.863,3.25,28.747,16.672,5.381,16.7,5.38,13.116.5,16.7-5.38S166.538,10090.256,166.37,10088.463Zm-33.193,5.729c-.48-4.577.7-8.453,2.64-8.656s3.9,3.341,4.381,7.918-.7,8.453-2.639,8.657S133.659,10098.768,133.177,10094.191Zm13.244,21.7c-7.847,0-9.733-8.333-9.733-8.333h19.465S154.267,10115.887,146.421,10115.887Zm13.242-21.7c-.481,4.576-2.442,8.122-4.38,7.919s-3.121-4.08-2.64-8.657,2.443-8.122,4.381-7.918S160.145,10089.614,159.663,10094.191Z" transform="translate(-118 -10077.367)" fill="#fff"/>
    </g>
  </g>
</svg>
