<svg xmlns="http://www.w3.org/2000/svg" xmlns:xlink="http://www.w3.org/1999/xlink" width="256" height="254" viewBox="0 0 256 254">
  <defs>
    <linearGradient id="linear-gradient" x1="0.5" x2="0.5" y2="1" gradientUnits="objectBoundingBox">
      <stop offset="0" stop-color="#12b6ff"/>
      <stop offset="1" stop-color="#7c2bff"/>
    </linearGradient>
    <filter id="Ellipse_133" x="0" y="0" width="256" height="254" filterUnits="userSpaceOnUse">
      <feOffset dy="3" input="SourceAlpha"/>
      <feGaussianBlur stdDeviation="3" result="blur"/>
      <feFlood flood-opacity="0.251"/>
      <feComposite operator="in" in2="blur"/>
      <feComposite in="SourceGraphic"/>
    </filter>
  </defs>
  <g id="Group_2067" data-name="Group 2067" transform="translate(-189 -1074)">
    <g transform="matrix(1, 0, 0, 1, 189, 1074)" filter="url(#Ellipse_133)">
      <ellipse id="Ellipse_133-2" data-name="Ellipse 133" cx="119" cy="118" rx="119" ry="118" transform="translate(9 6)" fill="url(#linear-gradient)"/>
    </g>
    <g id="Layer_2" data-name="Layer 2" transform="translate(222.332 1103.768)">
      <g id="Layer_1" data-name="Layer 1" transform="translate(0)">
        <path id="Path_704" data-name="Path 704" d="M170.189,65.207l3.137-3.134a7.624,7.624,0,0,0,0-10.782l-4.261-4.261a7.626,7.626,0,0,0-10.779,0l-3.137,3.137a71.381,71.381,0,0,0-32.281-13.374v-5.94H101.6v5.94a71.523,71.523,0,0,0-39,19.034l14.369.045A63.064,63.064,0,1,1,63.7,148.356l-11.352-.027A72.122,72.122,0,1,0,170.189,65.207Z" transform="translate(-16.746 -9.868)" fill="#fff"/>
        <path id="Path_705" data-name="Path 705" d="M47.124,153.152h0l6.042.015A54.491,54.491,0,1,0,66.956,72.4l-5.681-.012-8.381-.018L40.37,72.341l-11.357-.026a1.413,1.413,0,0,0-1.095.516l-4.571,5.562a1.413,1.413,0,0,0,1.089,2.31l9.81.018,11.011.024,9.2.018,2.037,0a54.611,54.611,0,0,0-10.668,15.6l-.994,0h0l-8.26-.021-9.619-.024-11.885-.028a1.413,1.413,0,0,0-1.15.588l-4,5.563a1.413,1.413,0,0,0,1.144,2.237l13.7.03,9.261.021,8.507.021h.307a54.656,54.656,0,0,0-1.835,14.082q0,.873.027,1.736l-3.05-.009-5.524-.015-9.047-.021L5.42,120.478a1.413,1.413,0,0,0-1.151.588l-4,5.566a1.413,1.413,0,0,0,1.144,2.237l22.666.051,9.155.021,4.538.012,4.162.009a54.156,54.156,0,0,0,5.605,15.794l-3.237-.009-6.316-.018-9.845-.027L16.4,144.668a1.413,1.413,0,0,0-1.191.646l-3.594,5.566a1.413,1.413,0,0,0,1.183,2.179l19.211.05,10.577.03Zm18.37-33.544c0-2.435,2.308-4.37,5.054-4.234l22.165,1.088.072-.973s.654-4.541-1.308-5.231-3.791-.826-3.661-4.68S91.477,69.508,100.1,67.992v48.831l12.187.6s1.311-5.8,5.343-5.8c3.463,0,21.149,1.3,26.073,1.663a1.3,1.3,0,0,1,1.272,1.229,1.322,1.322,0,0,1-1.392,1.236H126.256a1.494,1.494,0,1,0,0,2.965h16.758a1.753,1.753,0,1,1,0,3.481H126.256a1.5,1.5,0,1,0,0,2.968h17.331a1.32,1.32,0,0,1,1.392,1.233,1.3,1.3,0,0,1-1.272,1.23c-4.924.368-22.611,1.666-26.073,1.666-4.032,0-5.343-5.807-5.343-5.807l-12.187.6v23.87a4.472,4.472,0,0,1-4.228,4.575l-.609.018h-.53a4.487,4.487,0,0,1-4.333-4.933l1.715-23.138-21.571,1.058c-2.745.136-5.054-1.8-5.054-4.234Z" transform="translate(-0.004 -20.576)" fill="#fff"/>
        <path id="Path_706" data-name="Path 706" d="M115.768,13.62h29.138a6.81,6.81,0,0,0,6.81-6.81h0A6.81,6.81,0,0,0,144.907,0H115.768a6.81,6.81,0,0,0-6.81,6.81h0a6.81,6.81,0,0,0,6.81,6.81Z" transform="translate(-34.852)" fill="#fff"/>
      </g>
    </g>
  </g>
</svg>
