<svg xmlns="http://www.w3.org/2000/svg" width="269.581" height="78.909" viewBox="0 0 269.581 78.909">
  <path id="Path_1153" data-name="Path 1153" d="M410.454,5495.2a53.865,53.865,0,0,0,4.173-4.709c5.571-7.922,10.854-16.055,16.659-23.8,1.715-2.287,4.63-3.9,7.3-5.194,4.6-2.221,9.393.608,9.535,5.713.066,2.345.87,2.776,2.765,3.273,4.791,1.258,5.532,2.521,4.125,7.4-1.7,5.91-3.759,11.716-5.512,17.612a27.641,27.641,0,0,0-.564,4.981q.871.359,1.742.718c1.682-2.44,3.969-4.665,4.934-7.362,2.868-8.009,5.11-16.239,7.811-24.311,1.394-4.167,3.26-8.379,8.388-8.871,2.14-.206,5.073.179,6.394,1.524,1.058,1.079.74,4.181.115,6.085-1.055,3.215-2.929,6.153-4.278,9.285-.864,2-1.4,4.147-2.088,6.227l.9.507q1.777-2.345,3.553-4.692c3.5-4.595,6.88-9.29,10.569-13.728a17.257,17.257,0,0,1,5.256-3.935c2.4-1.264,5.508-2.029,7.156.576a8.639,8.639,0,0,1,.8,6.9c-2.577,6.145-5.92,11.965-8.883,17.953-1.083,2.189-1.926,4.5-2.877,6.75l1.624,1.252c1.708-1.324,3.89-2.329,5.038-4.031,3.885-5.761,7.231-11.886,11.121-17.643,2.619-3.875,5.39-7.839,8.848-10.915,4.844-4.309,11.3-1.6,12.527,4.725.141.732.74,1.375.885,2.107.4,2.019.694,4.061.981,6.1.238,1.683.407,3.376.607,5.064,1.484-1.04,3.505-1.758,4.349-3.177,2.606-4.383,4.764-9.033,7.33-14.038-8.2-7.27-17.349-12.479-28.782-12.082-2.113.073-4.118,1.973-6.266,2.788a26.687,26.687,0,0,1-4.447.9c-.152-1.626-.91-3.516-.341-4.83,1.706-3.937,3.908-7.66,5.957-11.443,2.949-5.446,11.99-6.885,18.085-2.091,4.7,3.692,8.548,8.472,12.68,12.857,1.525,1.618,2.758,3.51,4.156,5.251,1.741,2.167,3.125,2.318,4.741-.367a97.44,97.44,0,0,1,8.347-12.375,25.507,25.507,0,0,1,7.757-5.82c3.357-1.76,5.834-.184,6.559,3.54,1.525,7.821-5.364,23.762-12.128,27.833-.953.573-2.393,1.136-3.311.826-3.543-1.2-4.793.963-5.748,3.562-2.164,5.892-4.375,11.774-6.223,17.767-.409,1.326.608,3.092.969,4.657,1.485-.6,3.56-.78,4.356-1.882,3.815-5.278,7.337-10.772,10.856-16.258,1.98-3.087,3.316-6.714,5.758-9.339a16.871,16.871,0,0,1,7.9-4.534c4.746-1.189,6.356.416,7.009,5.256a7.167,7.167,0,0,0,1.254,2.586c.855,1.367,2.158,2.557,2.646,4.029,1.49,4.5,2.321,4.855,6.217,1.962,2.32-1.724,4.529-3.614,6.956-5.166.783-.5,2.1-.157,3.177-.2-.079,1.065.184,2.326-.295,3.161-2.13,3.711-4.355,7.381-6.786,10.9a47.357,47.357,0,0,1-4.6,5.023l-4.228-5.194c-1.405,1.894-3.266,3.646-4.2,5.8a32.038,32.038,0,0,1-10.978,13.613c-6.515,4.662-12.881,3.695-17.768-2.667-1.3-1.694-2.342-1.688-3.895-.458a42,42,0,0,1-5.18,3.558c-5.045,2.885-8.479,2.5-12.572-1.243-3.07-2.806-3.622-6.833-1.661-11.62.7-1.7,1.263-3.456,1.89-5.186l-1.515-1.122c-2,1.813-4.3,3.4-5.926,5.5-1.736,2.252-2.8,5.019-4.217,7.524-5.4,9.529-15.689,10.994-23.251,3.181-1.653-1.709-2.99-1.662-4.825-.645-2.048,1.135-4.113,2.688-6.314,2.979-2.377.317-5.5.151-7.253-1.18-2.508-1.9-1.848-5.2-.678-8.025q1.855-4.478,3.7-8.961l-.917-.69a35.619,35.619,0,0,0-3.1,3.431c-2.7,3.872-5.285,7.833-7.937,11.742a17.727,17.727,0,0,1-1.725,2.146c-4.517,4.83-6.1,4.777-9.608.194-3.769,1.576-7.278,3.9-11.035,4.413-5.5.757-4.6-5.7-7.215-8.4-2.955,2.24-5.464,4.556-8.342,6.237-5.681,3.316-9.605,2.384-13.76-2.635-2.219-2.679-3.817-.42-5.1,1.032a13.345,13.345,0,0,1-11.5,4.879c-4.451-.3-7.782-3.048-7.417-7.442.538-6.488,1.85-12.922,3.031-19.343.7-3.825,1.786-7.581,2.7-11.367l-1.075-.342c-2.024,5.569-4.091,11.124-6.057,16.714-1.481,4.208-2.793,8.477-4.249,12.7-1.547,4.487-5.138,6.428-9.588,5.273a7.545,7.545,0,0,1-5.622-9.4c1.008-4.6,2.5-9.092,3.659-13.661.462-1.811.612-3.7.9-5.555l-1.194-.431c-1.474,2.792-3.028,5.544-4.4,8.384-2.747,5.672-5.415,11.383-8.081,17.1-2.451,5.25-8.1,7.546-13.141,5.293-4.611-2.063-6.738-7.578-4.527-12.716,6.017-13.979,12.215-27.878,18.291-41.831a42.175,42.175,0,0,0,1.449-4.706l-.8-.819a58.257,58.257,0,0,0-6.12,3.588c-6.6,4.99-13.04,10.2-19.678,15.147-1.418,1.055-3.417,1.329-5.149,1.963-.6-2.215-2.1-4.642-1.639-6.606a187.82,187.82,0,0,1,5.9-19.516,50.333,50.333,0,0,1,4.766-9.031c1.807-2.974,3.442-2.862,5.858-.55a6.9,6.9,0,0,0,4.593,1.991c3.907-.291,7.745-1.428,11.651-1.833a48.908,48.908,0,0,1,10.6-.184c5.181.6,6.82,3.124,5.737,8.223-1.228,5.771-2.709,11.485-4.055,17.23a3.37,3.37,0,0,0,.31,2.465c2.809-5.436,5.569-10.9,8.45-16.293a60.289,60.289,0,0,1,4.294-7.042,6.371,6.371,0,0,1,8.442-2.1c3.084,1.538,4.251,4.487,3.343,8.055a58.277,58.277,0,0,0-1.988,11.46c2.8-4.82,5.565-9.656,8.406-14.45a23.442,23.442,0,0,1,2.742-3.833c3.745-4.116,9.158-5.227,13.162-2.812,4.338,2.616,6.032,7.711,3.9,13.12-4.082,10.368-8.466,20.617-12.585,30.971-1.647,4.142-3.051,8.392-4.311,12.668a29.837,29.837,0,0,0-.573,5.692Zm33.7-21.173c-7.673,2.431-17.235,15.66-17.021,22.488.093,2.974,1.669,3.82,4.424,1.69C439.242,5492.261,442.147,5483.743,444.153,5474.024Zm120.828-32.381a12.5,12.5,0,0,0-2.418.988c-5.722,4.927-8.315,11.51-9.684,18.686-.107.559.624,1.817.965,1.817a4.143,4.143,0,0,0,2.778-.838C561.912,5456.763,563.551,5449.765,564.981,5441.643Zm4.732,41.817c-5.341,6.461-7.467,14.275-4.445,18.011,1.936-2.379,3.979-4.532,5.6-6.963C574.664,5488.838,574.582,5488.784,569.713,5483.46Zm-63.546,17.718c3.568-.91,8.863-6.337,9.42-9.972.25-1.625-1.224-3.515-2.131-5.834C509.417,5490.438,506.71,5495.039,506.167,5501.178Z" transform="translate(-330.296 -5429.397)" fill="#afafaf"/>
</svg>
