<svg xmlns="http://www.w3.org/2000/svg" width="245.323" height="80.248" viewBox="0 0 245.323 80.248">
  <g id="Group_2067" data-name="Group 2067" transform="translate(-929.148 -8439.684)">
    <path id="Path_1238" data-name="Path 1238" d="M874.544,6810.073v-66.884a6.673,6.673,0,0,1,1.127-3.713,6.55,6.55,0,0,1,.831-1.013,6.674,6.674,0,0,1,4.725-1.957h231.957a6.68,6.68,0,0,1,6.554,5.379,6.644,6.644,0,0,1,.129,1.3v66.883a6.686,6.686,0,0,1-1.127,3.713,6.687,6.687,0,0,1-1.844,1.843,6.673,6.673,0,0,1-3.712,1.126H881.226a6.687,6.687,0,0,1-5.556-2.969,6.745,6.745,0,0,1-.617-1.155,6.707,6.707,0,0,1-.509-2.557Z" transform="translate(54.604 1703.178)" fill="#313130"/>
    <path id="Path_1239" data-name="Path 1239" d="M1065.657,6773.845a4.152,4.152,0,0,0-3.434,1.315,6.769,6.769,0,0,0-1.091,4.185v.523q0,3.265,1.091,4.674a4.141,4.141,0,0,0,3.49,1.4,3.633,3.633,0,0,0,3.147-1.626,7.712,7.712,0,0,0,1.138-4.483,7.419,7.419,0,0,0-1.138-4.444,3.741,3.741,0,0,0-3.2-1.549m.339,14.067a6.689,6.689,0,0,1-2.764-.56,5.2,5.2,0,0,1-2.1-1.715h-.17a20.4,20.4,0,0,1,.17,2.572v6.375h-2.345v-22.451h1.907l.326,2.123h.112a5.455,5.455,0,0,1,2.108-1.839,6.411,6.411,0,0,1,2.756-.566,5.731,5.731,0,0,1,4.758,2.106,11.223,11.223,0,0,1-.028,11.842,5.744,5.744,0,0,1-4.73,2.113" transform="translate(54.604 1703.178)" fill="#fafafa"/>
    <rect id="Rectangle_2754" data-name="Rectangle 2754" width="2.347" height="21.997" transform="translate(1130.119 8468.81)" fill="#fafafa"/>
    <path id="Path_1240" data-name="Path 1240" d="M1086.052,6785.976a4.769,4.769,0,0,0,3.442-1.2,4.446,4.446,0,0,0,1.253-3.366v-1.4l-2.35.1a8.54,8.54,0,0,0-4.034.87,2.62,2.62,0,0,0-1.238,2.4,2.417,2.417,0,0,0,.77,1.938,3.21,3.21,0,0,0,2.157.665m5.3,1.653-.467-2.205h-.114a6.478,6.478,0,0,1-2.311,1.972,7.035,7.035,0,0,1-2.875.516,5.184,5.184,0,0,1-3.615-1.188,4.326,4.326,0,0,1-1.306-3.377q0-4.7,7.507-4.921l2.629-.084v-.962a3.915,3.915,0,0,0-.785-2.692,3.226,3.226,0,0,0-2.509-.871,10.241,10.241,0,0,0-4.383,1.187l-.721-1.795a11.13,11.13,0,0,1,2.511-.975,10.884,10.884,0,0,1,2.734-.354,5.917,5.917,0,0,1,4.109,1.23,5.147,5.147,0,0,1,1.334,3.945v10.574Z" transform="translate(54.604 1703.178)" fill="#fafafa"/>
    <path id="Path_1241" data-name="Path 1241" d="M1094.455,6772.135h2.516l3.393,8.836a33.454,33.454,0,0,1,1.386,4.37h.112q.188-.723.771-2.469t3.838-10.737h2.518l-6.66,17.643a8.81,8.81,0,0,1-2.312,3.713,4.916,4.916,0,0,1-3.243,1.094,9.547,9.547,0,0,1-2.122-.239v-1.881a8.091,8.091,0,0,0,1.739.171q2.42,0,3.45-2.715l.862-2.206Z" transform="translate(54.604 1703.178)" fill="#fafafa"/>
    <path id="Path_1242" data-name="Path 1242" d="M1021.162,6781.807a3.278,3.278,0,0,0,.808-2.366c0-2.334-1.392-5.962-4.081-5.962a3.024,3.024,0,0,0-2.269,1.069,3.744,3.744,0,0,0-.712,2.4c0,2.172,1.262,5.77,4.052,5.77a3.315,3.315,0,0,0,2.2-.909m-.94,6.158a5.044,5.044,0,0,0-.744-.034,12.9,12.9,0,0,0-3.4.521c-.712.259-2.787,1.036-2.787,3.337s2.236,3.956,5.705,3.956c3.11,0,4.765-1.494,4.765-3.5,0-1.655-1.073-2.527-3.535-4.278m2.3-14.389a5.459,5.459,0,0,1,2.3,4.375c0,2.4-1.362,3.533-2.723,4.6a2.283,2.283,0,0,0-.908,1.589,1.782,1.782,0,0,0,.843,1.394l1.168.9c1.427,1.2,2.722,2.3,2.722,4.539,0,3.046-2.951,6.125-8.523,6.125-4.7,0-6.967-2.235-6.967-4.635a4.656,4.656,0,0,1,2.494-3.953c2.008-1.232,4.732-1.394,6.19-1.492a3.4,3.4,0,0,1-.973-2.2,2.915,2.915,0,0,1,.325-1.264c-.359.034-.716.065-1.04.065a5.124,5.124,0,0,1-5.377-5.087,5.83,5.83,0,0,1,2.073-4.342,8.833,8.833,0,0,1,5.8-1.783h6.675l-2.074,1.167Z" transform="translate(54.604 1703.178)" fill="#fafafa"/>
    <path id="Path_1243" data-name="Path 1243" d="M1006.166,6784.825a5.86,5.86,0,0,0,.972-3.593c0-2.848-1.359-8.281-5.372-8.281a4.5,4.5,0,0,0-2.911,1.1,4.9,4.9,0,0,0-1.49,3.949c0,3.2,1.585,8.474,5.5,8.474a4.136,4.136,0,0,0,3.3-1.649m-4.044,2.621a7.633,7.633,0,0,1-7.894-7.637c0-4.239,3.46-7.862,8.382-7.862a7.564,7.564,0,0,1,7.729,7.637,7.9,7.9,0,0,1-8.217,7.862" transform="translate(54.604 1703.178)" fill="#fafafa"/>
    <path id="Path_1244" data-name="Path 1244" d="M988.628,6784.825a5.86,5.86,0,0,0,.972-3.593c0-2.848-1.36-8.281-5.373-8.281a4.509,4.509,0,0,0-2.912,1.1,4.9,4.9,0,0,0-1.488,3.949c0,3.2,1.586,8.474,5.5,8.474a4.132,4.132,0,0,0,3.3-1.649m-4.044,2.621a7.634,7.634,0,0,1-7.895-7.637c0-4.239,3.461-7.862,8.381-7.862a7.564,7.564,0,0,1,7.732,7.637,7.906,7.906,0,0,1-8.218,7.862" transform="translate(54.604 1703.178)" fill="#fafafa"/>
    <path id="Path_1245" data-name="Path 1245" d="M974.217,6786.94l-4.653,1.073a34.522,34.522,0,0,1-5.366.552c-8.979,0-12.4-6.6-12.4-11.777,0-6.31,4.847-12.163,13.143-12.163a18.715,18.715,0,0,1,4.977.683,12.728,12.728,0,0,1,4.294,2.015l-2.7,2.571-1.138.258.815-1.3a9.3,9.3,0,0,0-6.962-3.056c-5.139,0-9.011,3.9-9.011,9.6,0,6.113,4.425,11.872,11.515,11.872a9.7,9.7,0,0,0,4.132-.814v-5.236l-4.912.26,2.6-1.4h6.9l-.846.813a.764.764,0,0,0-.326.519c-.032.294-.063,1.238-.063,1.563Z" transform="translate(54.604 1703.178)" fill="#fafafa"/>
    <path id="Path_1246" data-name="Path 1246" d="M1032.806,6786c-1.075-.1-1.3-.293-1.3-1.563v-18.412c.008-.069.011-.141.018-.209.131-1.138.456-1.333,1.465-1.919h-4.652l-2.441,1.172h2.486v.014l0-.01v20.082c0,.649-.128.746-.878,1.722h5.76l1.2-.712c-.55-.067-1.1-.1-1.658-.165" transform="translate(54.604 1703.178)" fill="#fafafa"/>
    <path id="Path_1247" data-name="Path 1247" d="M1043.007,6776.674c.612-.226.935-.421.935-.872a3.2,3.2,0,0,0-3.2-2.778c-1.292,0-3.715,1-3.715,4.491,0,.548.065,1.131.1,1.712Zm3.035,9.628c-.354.2-.708.42-1.063.581a7.518,7.518,0,0,1-3.137.615,6.9,6.9,0,0,1-4.3-1.261,8.365,8.365,0,0,1-3.294-6.818,7.321,7.321,0,0,1,7.4-7.459,6.3,6.3,0,0,1,3.33.9,5.348,5.348,0,0,1,2.257,3.2l-7.588,3.07-2.49.193c.808,4.1,3.585,6.491,6.655,6.491a8.35,8.35,0,0,0,3.942-1.129Z" transform="translate(54.604 1703.178)" fill="#fafafa"/>
    <path id="Path_1248" data-name="Path 1248" d="M1049.161,6772.179v2.131h-.258v-2.131h-.707v-.221h1.672v.221Z" transform="translate(54.604 1703.178)" fill="#fafafa"/>
    <path id="Path_1249" data-name="Path 1249" d="M1052.067,6774.311v-2.152h-.013l-.656,2.152h-.2l-.662-2.152h-.008v2.152h-.237v-2.352h.4l.6,1.9h.008l.592-1.9h.407v2.352Z" transform="translate(54.604 1703.178)" fill="#fafafa"/>
    <path id="Path_1250" data-name="Path 1250" d="M955.931,6755.436a28.327,28.327,0,0,1-.863-2.819h-.081q0,.2-.9,2.819Zm2.334,2.855h-1.617a10.563,10.563,0,0,0-.459-1.89h-2.334a9.71,9.71,0,0,0-.473,1.89h-1.523q0-.2,1.182-3.233a25.372,25.372,0,0,0,1.178-3.345h1.91a27.664,27.664,0,0,0,1.068,3.3,28.8,28.8,0,0,1,1.068,3.282" transform="translate(54.604 1703.178)" fill="#fbfcfc"/>
    <path id="Path_1251" data-name="Path 1251" d="M964.779,6758.289h-1.248a12.414,12.414,0,0,0-1.389-2.188,12,12,0,0,1-1.657-2.852h-.08a18.015,18.015,0,0,1,.125,2q0,1.248.071,3.041h-1.243q.077-1.567.077-3.44,0-1.844-.077-3.138h1.5a9.453,9.453,0,0,0,1.25,2.138,12.551,12.551,0,0,1,1.523,2.692h.077a19.029,19.029,0,0,1-.121-2.02c0-.914-.024-1.849-.071-2.81h1.263q-.07,1.254-.072,3.138t.072,3.44" transform="translate(54.604 1703.178)" fill="#fbfcfc"/>
    <path id="Path_1252" data-name="Path 1252" d="M970.72,6754.991a2.435,2.435,0,0,0-.566-1.635,2.147,2.147,0,0,0-1.727-.664,5.672,5.672,0,0,0-.6.045q.05,1.011.051,2.112,0,1.206.05,2.4a3.332,3.332,0,0,0,.657.066,1.91,1.91,0,0,0,1.61-.675,2.612,2.612,0,0,0,.521-1.644m1.381-.219a3.727,3.727,0,0,1-.922,2.506,3.2,3.2,0,0,1-2.575,1.071q-.749,0-2.06-.06.064-1.526.065-3.44,0-1.839-.065-3.138h.883c.146,0,.36,0,.646-.014s.474-.015.562-.015a3.406,3.406,0,0,1,2.645.909,3.147,3.147,0,0,1,.821,2.181" transform="translate(54.604 1703.178)" fill="#fbfcfc"/>
    <path id="Path_1253" data-name="Path 1253" d="M976.956,6753.643q0-1-1.293-1.006a4.439,4.439,0,0,0-.838.071c.036.521.056,1.2.056,2.042.185.006.342.008.47.008q1.605,0,1.6-1.115m1.894,4.646h-1.495a10.051,10.051,0,0,0-.9-2.207,1.185,1.185,0,0,0-1.012-.42c-.194,0-.381,0-.559.006q0,1.3.045,2.621h-1.4q.063-1.526.065-3.44,0-1.839-.065-3.136h.873c.1,0,.312,0,.633-.016s.62-.015.893-.015q2.317,0,2.319,1.588a1.782,1.782,0,0,1-1.323,1.752v.075a1.582,1.582,0,0,1,.893.795,17.659,17.659,0,0,1,1.035,2.4" transform="translate(54.604 1703.178)" fill="#fbfcfc"/>
    <path id="Path_1254" data-name="Path 1254" d="M984.7,6755.027a2.613,2.613,0,0,0-.54-1.713,1.668,1.668,0,0,0-1.334-.656,1.537,1.537,0,0,0-1.253.662,2.638,2.638,0,0,0-.516,1.673,2.6,2.6,0,0,0,.544,1.707,1.655,1.655,0,0,0,1.33.659,1.531,1.531,0,0,0,1.253-.664,2.632,2.632,0,0,0,.516-1.668m1.393-.148a3.629,3.629,0,0,1-.95,2.573,3.085,3.085,0,0,1-2.348,1.02,2.962,2.962,0,0,1-2.233-.938,3.3,3.3,0,0,1-.9-2.381,3.623,3.623,0,0,1,.949-2.571,3.08,3.08,0,0,1,2.35-1.021,2.975,2.975,0,0,1,2.233.935,3.3,3.3,0,0,1,.9,2.383" transform="translate(54.604 1703.178)" fill="#fbfcfc"/>
    <path id="Path_1255" data-name="Path 1255" d="M988.946,6758.289h-1.43q.066-1.567.067-3.44,0-1.844-.067-3.138h1.43q-.063,1.274-.065,3.138,0,1.9.065,3.44" transform="translate(54.604 1703.178)" fill="#fbfcfc"/>
    <path id="Path_1256" data-name="Path 1256" d="M994.889,6754.991a2.436,2.436,0,0,0-.567-1.635,2.143,2.143,0,0,0-1.726-.664,5.634,5.634,0,0,0-.6.045c.032.674.05,1.378.05,2.112q0,1.206.05,2.4a3.35,3.35,0,0,0,.658.066,1.907,1.907,0,0,0,1.608-.675,2.6,2.6,0,0,0,.523-1.644m1.379-.219a3.725,3.725,0,0,1-.92,2.506,3.206,3.206,0,0,1-2.576,1.071q-.747,0-2.061-.06.066-1.526.067-3.44,0-1.839-.067-3.138h.885c.144,0,.358,0,.646-.014s.472-.015.561-.015a3.4,3.4,0,0,1,2.644.909,3.143,3.143,0,0,1,.821,2.181" transform="translate(54.604 1703.178)" fill="#fbfcfc"/>
    <path id="Path_1257" data-name="Path 1257" d="M1003.649,6755.436a28.069,28.069,0,0,1-.865-2.819h-.082a29.34,29.34,0,0,1-.894,2.819Zm2.331,2.855h-1.616a10.563,10.563,0,0,0-.459-1.89h-2.334a9.748,9.748,0,0,0-.474,1.89h-1.52q0-.2,1.18-3.233a25.372,25.372,0,0,0,1.178-3.345h1.91a28.127,28.127,0,0,0,1.068,3.3,28.648,28.648,0,0,1,1.067,3.282" transform="translate(54.604 1703.178)" fill="#fbfcfc"/>
    <path id="Path_1258" data-name="Path 1258" d="M1010.572,6753.712c0-.718-.479-1.08-1.435-1.08a4.172,4.172,0,0,0-.76.076c.039.634.057,1.357.057,2.162.085.006.182.009.292.009q1.845,0,1.846-1.167m1.3-.277a1.971,1.971,0,0,1-.9,1.783,3.982,3.982,0,0,1-2.2.575c-.159,0-.271,0-.337-.01,0,.635.016,1.469.055,2.506h-1.42q.066-1.458.066-3.44c0-1.213-.022-2.256-.066-3.136h.88c.123,0,.361,0,.715-.016s.661-.015.92-.015a2.9,2.9,0,0,1,1.623.435,1.47,1.47,0,0,1,.661,1.318" transform="translate(54.604 1703.178)" fill="#fbfcfc"/>
    <path id="Path_1259" data-name="Path 1259" d="M1016.63,6753.712c0-.718-.479-1.08-1.437-1.08a4.159,4.159,0,0,0-.758.076c.039.634.057,1.357.057,2.162.083.006.182.009.292.009q1.845,0,1.846-1.167m1.3-.277a1.97,1.97,0,0,1-.9,1.783,3.982,3.982,0,0,1-2.2.575c-.159,0-.271,0-.339-.01q0,.952.057,2.506h-1.42q.063-1.458.065-3.44c0-1.213-.023-2.256-.065-3.136h.878c.125,0,.363,0,.717-.016s.659-.015.92-.015a2.886,2.886,0,0,1,1.621.435,1.467,1.467,0,0,1,.663,1.318" transform="translate(54.604 1703.178)" fill="#fbfcfc"/>
    <path id="Path_1260" data-name="Path 1260" d="M1026.443,6755.027a2.6,2.6,0,0,0-.541-1.713,1.664,1.664,0,0,0-1.332-.656,1.543,1.543,0,0,0-1.255.662,2.649,2.649,0,0,0-.514,1.673,2.584,2.584,0,0,0,.544,1.707,1.653,1.653,0,0,0,1.331.659,1.533,1.533,0,0,0,1.252-.664,2.632,2.632,0,0,0,.515-1.668m1.394-.148a3.629,3.629,0,0,1-.95,2.573,3.083,3.083,0,0,1-2.348,1.02,2.962,2.962,0,0,1-2.233-.938,3.3,3.3,0,0,1-.9-2.381,3.629,3.629,0,0,1,.951-2.571,3.077,3.077,0,0,1,2.35-1.021,2.974,2.974,0,0,1,2.233.935,3.3,3.3,0,0,1,.9,2.383" transform="translate(54.604 1703.178)" fill="#fbfcfc"/>
    <path id="Path_1261" data-name="Path 1261" d="M1034.683,6758.289h-1.248a12.272,12.272,0,0,0-1.389-2.188,12.146,12.146,0,0,1-1.657-2.852h-.079a18.048,18.048,0,0,1,.126,2q0,1.248.07,3.041h-1.243q.077-1.567.076-3.44,0-1.844-.076-3.138h1.5a9.442,9.442,0,0,0,1.248,2.138,12.613,12.613,0,0,1,1.526,2.692h.076a19.036,19.036,0,0,1-.122-2.02c0-.914-.024-1.849-.071-2.81h1.262q-.07,1.254-.069,3.138t.069,3.44" transform="translate(54.604 1703.178)" fill="#fbfcfc"/>
    <g id="bBPfUG" transform="translate(951.763 8456.049)">
      <g id="Group_1756" data-name="Group 1756">
        <path id="Path_1262" data-name="Path 1262" d="M916.93,6777.773c-6.336,6.383-13,13.1-19.771,19.917v-39.879Z" transform="translate(-897.159 -6752.871)" fill="#fff"/>
        <path id="Path_1263" data-name="Path 1263" d="M919.595,6775.149l-21.309-21.5a2.686,2.686,0,0,1,3.3-.394c1.1.521,2.148,1.158,3.217,1.75q10.548,5.841,21.094,11.687c.479.265.938.564,1.3.785Z" transform="translate(-897.159 -6752.871)" fill="#fff"/>
        <path id="Path_1264" data-name="Path 1264" d="M926.811,6787.431a2.9,2.9,0,0,1-.391.267q-12.144,6.736-24.291,13.469c-1.235.685-2.459.933-3.539.147l21.027-21.194Z" transform="translate(-897.159 -6752.871)" fill="#fff"/>
        <path id="Path_1265" data-name="Path 1265" d="M930.435,6769.208c3.27,1.815,6.588,3.573,9.818,5.48a2.977,2.977,0,0,1-.049,5.34c-3.1,1.826-6.28,3.535-9.456,5.235a1.379,1.379,0,0,1-1.27-.131c-2.548-2.471-5.039-5-7.459-7.429Z" transform="translate(-897.159 -6752.871)" fill="#fff"/>
      </g>
    </g>
  </g>
</svg>
