<svg xmlns="http://www.w3.org/2000/svg" xmlns:xlink="http://www.w3.org/1999/xlink" width="266" height="74.46" viewBox="0 0 266 74.46">
  <defs>
    <linearGradient id="linear-gradient" x1="0.5" x2="0.5" y2="1" gradientUnits="objectBoundingBox">
      <stop offset="0.2" stop-color="#23a9fb"/>
      <stop offset="1" stop-color="#196bfa"/>
    </linearGradient>
    <linearGradient id="linear-gradient-2" x1="0.5" x2="0.5" y2="1" gradientUnits="objectBoundingBox">
      <stop offset="0.5" stop-color="#196dfa" stop-opacity="0"/>
      <stop offset="1" stop-color="#196dfa"/>
    </linearGradient>
    <linearGradient id="linear-gradient-3" x1="0.5" y1="0" x2="0.5" y2="1.001" xlink:href="#linear-gradient"/>
    <linearGradient id="linear-gradient-4" x1="0.5" y1="0.003" x2="0.5" y2="0.994" gradientUnits="objectBoundingBox">
      <stop offset="0.34" stop-color="#fff"/>
      <stop offset="1" stop-color="#ccc"/>
    </linearGradient>
  </defs>
  <g id="Group_2069" data-name="Group 2069" transform="translate(-268 -87.54)">
    <g id="Group_2" data-name="Group 2" transform="translate(364.616 87.54)">
      <path id="Path_1" data-name="Path 1" d="M676.077,333.22H664.361a.91.91,0,0,0-.874.661l-6.524,22.209a.167.167,0,0,1-.151.109.146.146,0,0,1-.146-.1l-6.982-22.152a.91.91,0,0,0-.869-.65h-6.243a.91.91,0,0,0-.869.64l-7.283,22.157a.167.167,0,0,1-.151.109.156.156,0,0,1-.146-.1l-6.529-22.22a.905.905,0,0,0-.874-.661H614.693a.905.905,0,0,0-.848,1.228l13.8,36.542a.91.91,0,0,0,.853.588H640a.905.905,0,0,0,.864-.629l4.479-13.651a.166.166,0,0,1,.161-.114.172.172,0,0,1,.161.12l4.4,13.646a.9.9,0,0,0,.864.629h11.445a.905.905,0,0,0,.848-.593l13.729-36.537a.905.905,0,0,0-.874-1.228Zm72.99,37.858L742.4,358.02a.905.905,0,0,0-1.477-.2L737,362.094a.916.916,0,0,0-.239.614v7.96a.905.905,0,0,1-.905.91h-11.9a.91.91,0,0,1-.91-.91V318.32a.911.911,0,0,1,.91-.91h11.9a.905.905,0,0,1,.905.91v26.153a.656.656,0,0,0,1.165.416l9.26-11.336a.9.9,0,0,1,.7-.333h13.833a.905.905,0,0,1,.666,1.524l-11.3,12.168a.91.91,0,0,0-.13,1.066l12.548,22.24a.91.91,0,0,1-.791,1.358H749.873A.905.905,0,0,1,749.066,371.078Zm19.337-.411V334.125a.905.905,0,0,1,.91-.905h11.664a.91.91,0,0,1,.91.905v36.542a.91.91,0,0,1-.91.91H769.314a.91.91,0,0,1-.905-.91Zm-69.895-38.9a20.534,20.534,0,1,0,19.436,19.415A20.534,20.534,0,0,0,698.509,331.763Zm-.062,28.171a6.649,6.649,0,1,0,0-.021Z" transform="translate(-613.786 -316.323)" fill="url(#linear-gradient)"/>
      <path id="Path_2" data-name="Path 2" d="M735.722,318.431v26.012a1.706,1.706,0,0,0,1.706,1.7,1.686,1.686,0,0,0,1.306-.624l9.219-11.289h13.469l-11.1,11.966a1.951,1.951,0,0,0-.271,2.284l12.439,22.048H749.956l-6.633-13.006a1.935,1.935,0,0,0-1.738-1.04,1.961,1.961,0,0,0-1.436.629l-3.912,4.287a1.93,1.93,0,0,0-.52,1.316v7.8H724.09V318.431h11.633m-38.279,14.307h1.015a19.507,19.507,0,0,1-1.02,38.987c-.338,0-.682,0-1.04-.026a19.494,19.494,0,0,1,1.02-38.961m0,28.26a9.272,9.272,0,0,0,1.134-.068,8.771,8.771,0,0,0-1.134-17.465h0a9.153,9.153,0,0,0-1.134.068A8.771,8.771,0,0,0,697.417,361m83.431-26.756v36.277h-11.4V334.241h11.4m-104.964,0L662.28,370.518H651.022l-4.365-13.526a1.207,1.207,0,0,0-2.3,0l-4.443,13.526h-11.32l-13.7-36.277h11.731l6.529,22.131v.094a1.212,1.212,0,0,0,1.113.754,1.181,1.181,0,0,0,1.139-.822l7.257-22.084h6.056l6.956,22.074v.026h0a1.191,1.191,0,0,0,1.124.786,1.207,1.207,0,0,0,1.15-.858l6.5-22.121h11.445m59.974-16.851h-11.9a.91.91,0,0,0-.91.91v52.368a.911.911,0,0,0,.91.91h11.9a.905.905,0,0,0,.905-.91v-7.96a.916.916,0,0,1,.239-.614l3.917-4.276a.91.91,0,0,1,1.477.2l6.67,13.058a.905.905,0,0,0,.806.52h12.845a.91.91,0,0,0,.791-1.358l-12.548-22.24a.91.91,0,0,1,.13-1.066l11.3-12.168a.905.905,0,0,0-.666-1.524H747.891a.9.9,0,0,0-.7.333l-9.26,11.336a.645.645,0,0,1-.52.245.661.661,0,0,1-.666-.661V318.3a.905.905,0,0,0-.905-.91Zm-38.415,14.307a20.534,20.534,0,0,0-1.072,41.042c.359,0,.718.026,1.072.026a20.534,20.534,0,0,0,1.04-41.042h-1.04Zm0,28.26a7.726,7.726,0,0,1-1-15.389,8.2,8.2,0,0,1,1-.062,7.726,7.726,0,0,1,1,15.389A8.254,8.254,0,0,1,697.443,359.936ZM780.978,333.2H769.314a.905.905,0,0,0-.911.905v36.542a.91.91,0,0,0,.91.91h11.664a.91.91,0,0,0,.91-.91V334.106A.91.91,0,0,0,780.978,333.2Zm-104.9,0H664.361a.91.91,0,0,0-.874.661l-6.524,22.209a.167.167,0,0,1-.151.109.146.146,0,0,1-.146-.1l-6.982-22.152a.91.91,0,0,0-.869-.65h-6.243a.91.91,0,0,0-.869.64l-7.283,22.157a.167.167,0,0,1-.151.109.156.156,0,0,1-.146-.1l-6.529-22.22a.905.905,0,0,0-.874-.661H614.693a.905.905,0,0,0-.848,1.228l13.8,36.542a.911.911,0,0,0,.853.588H640a.905.905,0,0,0,.864-.63l4.479-13.651a.166.166,0,0,1,.161-.114.172.172,0,0,1,.161.12l4.4,13.646a.905.905,0,0,0,.864.629h11.445a.905.905,0,0,0,.848-.593l13.729-36.537a.905.905,0,0,0-.848-1.228Z" transform="translate(-613.786 -316.303)" fill="url(#linear-gradient-2)"/>
      <rect id="Rectangle_1" data-name="Rectangle 1" transform="translate(20.401 39.892)" fill="#fff"/>
      <line id="Line_1" data-name="Line 1" x1="0.364" transform="translate(20.271 39.767)" fill="none" stroke="#707070" stroke-miterlimit="10" stroke-width="2"/>
      <circle id="Ellipse_1" data-name="Ellipse 1" cx="7.023" cy="7.023" r="7.023" transform="translate(154.337 0)" fill="#1d86fa"/>
      <path id="Path_4" data-name="Path 4" d="M772.03,326.687a.905.905,0,0,1-1.217.338,22.714,22.714,0,0,0-21.169,0,.91.91,0,0,1-1.217-.338l-3.642-6.295a.916.916,0,0,1,.343-1.259,31.8,31.8,0,0,1,30.2,0,.916.916,0,0,1,.348,1.259Z" transform="translate(-676.574 -315.32)" fill="#1d86fa"/>
      <path id="Path_5" data-name="Path 5" d="M760.246,441.782a31.843,31.843,0,0,1-15.087-3.813.916.916,0,0,1-.343-1.259l3.642-6.295a.911.911,0,0,1,1.217-.338,22.714,22.714,0,0,0,21.169,0,.905.905,0,0,1,1.217.338l3.642,6.295a.916.916,0,0,1-.349,1.259A31.822,31.822,0,0,1,760.246,441.782Z" transform="translate(-676.589 -370.322)" fill="#1d86fa"/>
    </g>
    <g id="Group_1" data-name="Group 1" transform="translate(268 87.55)">
      <path id="Path_6" data-name="Path 6" d="M503.334,339.531c-.89-2.788-2.43-4.448-4.334-4.682h-.167c-.166-7.866-.77-16.169-4.786-18.208a12.581,12.581,0,0,0-10.4-.094l-.291.026a120.544,120.544,0,0,0-34.43.005l-.3-.031c-1.014-.453-5.759-2.284-10.4.094-4.011,2.045-4.615,10.348-4.786,18.208h-.2c-1.9.234-3.444,1.9-4.339,4.682a21.721,21.721,0,0,0-.609,9h0c.786,6.409,3.543,11.164,6.706,11.966.437,3.4.931,6.534,1.441,8.844,1.764,8.105,6.727,17.413,29.69,17.413,12.059,0,26.329-1.977,29.69-17.413.52-2.336,1-5.473,1.441-8.844,3.163-.812,5.92-5.567,6.706-11.966h0A21.715,21.715,0,0,0,503.334,339.531ZM430.5,348.26h0a19.415,19.415,0,0,1,.52-8.053c.562-1.758,1.425-2.9,2.336-3.121,0,.546-.026,1.04-.052,1.379-.193,2.664.427,11.372,1.373,19.441-1.758-1.28-3.621-4.911-4.2-9.645ZM493.658,368.9c-1.04,4.682-3.408,15.664-27.521,15.67s-26.5-10.982-27.521-15.67c-1.888-8.667-3.35-26.673-3.121-30.278.052-.7.068-1.686.094-2.929.088-5,.276-15.4,3.59-17.09a8.9,8.9,0,0,1,4.084-.942,11.361,11.361,0,0,1,1.5.1c-5.244,2.851-5.156,10.29-5.353,12.408-.224,2.4-.453,30.6,4.349,38.5s22.313,7.2,22.37,7.2,17.553.666,22.37-7.2,4.573-36.074,4.349-38.5c-.2-2.117-.109-9.567-5.364-12.408a9.364,9.364,0,0,1,5.577.838c3.309,1.691,3.5,12.09,3.59,17.09,0,1.243.042,2.227.094,2.929.234,3.59-1.233,21.606-3.116,30.278Zm8.116-20.643c-.6,4.9-2.44,8.464-4.193,9.687.952-8.074,1.561-16.814,1.384-19.478,0-.359-.042-.832-.057-1.379.91.219,1.779,1.358,2.341,3.121a19.5,19.5,0,0,1,.5,8.048Z" transform="translate(-428.072 -315.339)" fill="url(#linear-gradient-3)"/>
      <path id="Path_8" data-name="Path 8" d="M565.823,368.32c-.6,4.9-2.44,8.464-4.193,9.687.952-8.074,1.561-16.814,1.384-19.478,0-.359-.042-.832-.057-1.379.91.218,1.779,1.358,2.341,3.121a19.5,19.5,0,0,1,.525,8.048Z" transform="translate(-492.147 -335.398)" fill="#fff"/>
      <path id="Path_9" data-name="Path 9" d="M500.431,371.044c-1.04,4.682-3.408,15.664-27.526,15.67s-26.5-10.982-27.516-15.67c-1.888-8.667-3.35-26.673-3.121-30.278.052-.7.068-1.686.088-2.929.094-5,.281-15.4,3.595-17.09a8.9,8.9,0,0,1,4.084-.942,11.38,11.38,0,0,1,1.5.1c-5.244,2.851-5.156,10.29-5.353,12.408-.229,2.4-.453,30.6,4.349,38.5,4.094,6.722,17.485,7.216,21.33,7.216h2.081c3.834,0,17.22-.494,21.33-7.216,4.8-7.876,4.573-36.074,4.349-38.5-.2-2.117-.109-9.567-5.364-12.408a10.608,10.608,0,0,1,1.509-.109,8.985,8.985,0,0,1,4.089.947c3.309,1.691,3.5,12.09,3.59,17.09,0,1.243.042,2.227.088,2.929C503.782,344.355,502.315,362.371,500.431,371.044Z" transform="translate(-434.871 -317.479)" fill="url(#linear-gradient-4)"/>
      <path id="Path_10" data-name="Path 10" d="M436.7,377.965c-1.743-1.285-3.605-4.916-4.162-9.65a19.416,19.416,0,0,1,.52-8.053c.562-1.758,1.425-2.9,2.336-3.121,0,.546-.031,1.04-.052,1.379C435.138,361.187,435.752,369.9,436.7,377.965Z" transform="translate(-430.119 -335.393)" fill="#fff"/>
      <path id="Path_11" data-name="Path 11" d="M466.987,347.905c-.645-6.123.936-11.31,3.532-11.586s5.2,4.474,5.863,10.6-.936,11.315-3.532,11.586S467.632,354.034,466.987,347.905Zm35.449,0c-.656,6.128-3.257,10.873-5.858,10.613s-4.162-5.457-3.532-11.586,3.267-10.868,5.863-10.6S503.076,341.782,502.436,347.905Z" transform="translate(-446.673 -325.399)" fill="#fff"/>
      <path id="Path_12" data-name="Path 12" d="M489.2,404.134c-10.5,0-13.006-11.154-13.006-11.154h26.054S499.695,404.134,489.2,404.134Z" transform="translate(-451.157 -352.588)" fill="#fff"/>
    </g>
    <text id="PARTNER" transform="translate(503 159)" fill="#0076ff" font-size="12" font-family="Montserrat-Bold, Montserrat" font-weight="700"><tspan x="-30.06" y="0">PARTNER</tspan></text>
  </g>
</svg>
